<?xml version="1.0" encoding="utf-8"?>
<!-- Generator: Adobe Illustrator 19.2.1, SVG Export Plug-In . SVG Version: 6.00 Build 0)  -->
<svg version="1.1" id="Layer_1" xmlns="http://www.w3.org/2000/svg" xmlns:xlink="http://www.w3.org/1999/xlink" x="0px" y="0px"
	 width="178.3px" height="58.2px" viewBox="0 0 178.3 58.2" style="enable-background:new 0 0 178.3 58.2;" xml:space="preserve">
<g>
	<path d="M9.7,25.7c0.9-1.1,1.6-1.9,2.4-2.6c0.7-0.7,1.4-1,2.1-1c0.9,0,1.7,0.2,2.4,0.6c0.7,0.4,1.3,0.9,1.8,1.6
		c0.5,0.7,0.9,1.4,1.1,2.3s0.4,1.8,0.4,2.7c0,0.8,0,1.5-0.1,2.2c-0.1,0.7-0.2,1.4-0.3,2.1c-0.2,0.7-0.4,1.3-0.7,2
		c-0.3,0.7-0.7,1.3-1.1,2.1c0.6-0.3,1.1-0.6,1.7-0.9c0.6-0.3,1.1-0.6,1.7-1s1.2-0.8,1.7-1.2c0.6-0.5,1.2-1,1.8-1.6l1.8,3.8
		c-0.8,0.8-1.7,1.4-2.5,2c-0.8,0.6-1.7,1.1-2.6,1.5c-0.9,0.4-1.8,0.8-2.8,1.1c-1,0.3-2,0.6-3.1,0.8c-0.3,0.3-0.6,0.5-1.1,0.8
		s-0.9,0.5-1.4,0.7c-0.5,0.2-1.1,0.5-1.6,0.7h-0.6c-1.3,0-2.6-0.2-3.9-0.5S4.5,43,3.5,42.6C2.3,42,1.1,41.5,0,40.8
		c0-1.2,0.1-2.7,0.3-4.2c0.1-1.4,0.3-3,0.5-4.8C1,30,1.3,27.9,1.7,25.6c0.2-1.5,0.6-3.2,0.9-5C3,18.7,3.4,16.9,3.9,15
		c0.5-1.9,1.1-3.7,1.7-5.5S6.9,6,7.7,4.6c0.8-1.4,1.6-2.5,2.5-3.4C11,0.4,12,0,13.1,0c1.2,0,2.1,0.2,2.8,0.6
		c0.7,0.4,1.3,0.9,1.6,1.6c0.4,0.7,0.6,1.5,0.8,2.4c0.1,0.9,0.2,1.9,0.2,3c0,1.5-0.3,3-0.8,4.5c-0.5,1.6-1.3,3.1-2.1,4.7
		c-0.9,1.5-1.9,3.1-2.9,4.5c-1.1,1.5-2.2,2.9-3.2,4.2L9.7,25.7z M11.8,27.4c-0.5,0-1.1,0.1-1.6,0.3c-0.5,0.2-1,0.6-1.5,1
		c-0.5,0.5-0.9,1.1-1.2,1.8c-0.4,0.7-0.6,1.6-0.8,2.6c-0.1,0.8-0.3,1.6-0.3,2.3s-0.2,1.3-0.2,1.9C6,38,6,38.6,5.9,39.1
		c0.5,0.2,1,0.3,1.5,0.4c0.4,0.1,0.9,0.2,1.4,0.3c0.5,0.1,1,0.1,1.4,0.1c0.5,0,1-0.2,1.4-0.5s0.8-0.7,1.2-1.2
		c0.3-0.5,0.6-1.1,0.9-1.8c0.2-0.7,0.4-1.4,0.6-2.1c0.2-0.7,0.3-1.4,0.3-2.1s0.1-1.3,0.1-1.9c0-0.4,0-0.8-0.1-1.1
		c-0.1-0.3-0.2-0.7-0.5-0.9c-0.2-0.3-0.5-0.5-0.9-0.6C12.9,27.5,12.4,27.4,11.8,27.4z M14,6.3c0-0.1,0-0.2,0-0.4
		c0-0.2-0.1-0.4-0.2-0.6c-0.1-0.2-0.2-0.4-0.4-0.6c-0.2-0.2-0.4-0.3-0.6-0.3c-0.3,0-0.6,0.2-1,0.7s-0.7,1-1,1.8
		c-0.3,0.7-0.6,1.6-0.9,2.6c-0.3,1-0.6,2-0.9,3.1c-0.3,1.1-0.6,2.2-0.8,3.3c-0.3,1.1-0.5,2.2-0.7,3.1c-0.2,1-0.4,1.9-0.5,2.7
		c-0.2,0.8-0.3,1.5-0.4,2C7.1,22.9,7.5,22,8,21.2c0.5-0.9,1-1.8,1.6-2.7s1-1.9,1.5-2.9c0.5-1,1-2,1.4-3c0.4-1,0.7-2.1,1-3.1
		C13.8,8.4,14,7.4,14,6.3z"/>
	<path d="M29.3,44.3c-0.8,0-1.6-0.4-2.3-1.1c-0.7-0.7-1.3-1.7-1.9-2.9c-0.5-1.2-0.9-2.7-1.2-4.3s-0.5-3.3-0.5-5.1
		c0-1.4,0.1-2.9,0.3-4.5c0.2-1.6,0.5-3.3,0.9-5c0.4-1.7,0.8-3.4,1.4-5.1s1.1-3.4,1.8-5c0.7-1.6,1.4-3.1,2.2-4.4s1.6-2.6,2.5-3.6
		c0.9-1,1.8-1.8,2.7-2.4C36,0.3,37,0,38,0c0.7,0,1.2,0.1,1.6,0.5c0.4,0.3,0.8,0.7,1,1.2c0.2,0.5,0.4,1.1,0.5,1.7s0.1,1.3,0.1,1.9
		c0,1.4-0.2,2.9-0.5,4.4c-0.3,1.5-0.8,3-1.3,4.5c-0.6,1.5-1.2,3-2,4.6s-1.5,3-2.3,4.5c-0.8,1.5-1.6,3-2.4,4.4
		c-0.8,1.5-1.6,2.9-2.3,4.3c-0.1,0.2-0.2,0.4-0.2,0.6c-0.1,0.2-0.2,0.5-0.2,0.8c-0.1,0.3-0.2,0.6-0.2,0.9c-0.1,0.3-0.1,0.6-0.2,0.9
		v0.3c0,0.4,0,0.8,0.1,1.2s0.2,0.7,0.3,1c0.1,0.3,0.3,0.5,0.4,0.7s0.3,0.3,0.4,0.3c0.3,0,0.6-0.1,1-0.2c0.4-0.1,0.8-0.3,1.2-0.5
		c0.4-0.2,0.9-0.4,1.3-0.7c0.4-0.3,0.9-0.5,1.3-0.8c1-0.6,2-1.4,3-2.2l1.9,4.8c-1.4,1-2.7,1.9-4.1,2.6c-0.6,0.3-1.2,0.6-1.8,1
		c-0.6,0.3-1.2,0.6-1.9,0.8s-1.2,0.4-1.8,0.6C30.4,44.2,29.8,44.3,29.3,44.3z M29.3,25.8c0.7-1.2,1.4-2.6,2.2-4.2
		c0.8-1.5,1.5-3.1,2.2-4.8c0.7-1.6,1.3-3.3,1.8-4.9c0.5-1.6,0.8-3.1,1-4.5c0-0.4,0-0.8,0-1.1c0-0.3-0.1-0.5-0.2-0.5
		c-0.4,0-0.9,0.3-1.4,0.9c-0.5,0.6-1,1.4-1.5,2.3c-0.5,1-1,2.1-1.5,3.4c-0.5,1.3-0.9,2.7-1.3,4.2s-0.7,3-0.9,4.6
		C29.4,22.9,29.3,24.4,29.3,25.8z"/>
	<path d="M61.5,38.7c-0.4,0.5-0.8,1.1-1.4,1.7c-0.6,0.7-1.3,1.3-2,1.9c-0.7,0.6-1.5,1.1-2.4,1.5s-1.7,0.6-2.5,0.6
		c-1,0-1.9-0.3-2.5-1c-0.7-0.7-1.3-1.6-1.8-2.9c-0.4,0.4-0.8,0.9-1.4,1.3s-1.1,0.9-1.8,1.2c-0.6,0.4-1.3,0.7-2,0.9
		c-0.7,0.2-1.4,0.3-2.1,0.3c-0.7,0-1.5-0.1-2.2-0.5c-0.7-0.3-1.3-0.7-1.9-1.3s-1-1.2-1.3-2.1c-0.3-0.8-0.5-1.7-0.5-2.7
		c0-1.2,0.2-2.3,0.5-3.6c0.3-1.2,0.8-2.4,1.3-3.6c0.6-1.2,1.2-2.3,2-3.3c0.8-1,1.6-1.9,2.6-2.7c0.9-0.8,1.9-1.4,2.9-1.8
		c1-0.5,2.1-0.7,3.1-0.7c0.4,0,0.6,0.1,0.8,0.2c0.2,0.1,0.4,0.3,0.5,0.5c0.1,0.2,0.3,0.4,0.4,0.5c0.1,0.2,0.3,0.3,0.5,0.4
		c0.2,0.1,0.4,0.1,0.6,0.2s0.4,0,0.6,0c0.2,0,0.3,0,0.5,0c0.2,0,0.3,0,0.5,0c0.2,0,0.4,0,0.6,0.1c0.2,0,0.4,0.1,0.5,0.3
		c0.2,0.2,0.3,0.4,0.4,0.6c0.1,0.3,0.1,0.7,0.1,1.1c0,0.7-0.1,1.6-0.2,2.5c-0.2,0.9-0.3,1.8-0.5,2.8s-0.4,1.9-0.5,2.8
		s-0.2,1.8-0.2,2.7c0,0.7,0.1,1.3,0.2,1.7c0.1,0.4,0.4,0.6,0.8,0.6c0.3,0,0.7-0.1,1-0.2c0.4-0.2,0.7-0.4,1.1-0.6
		c0.4-0.3,0.7-0.6,1.1-0.9c0.4-0.3,0.7-0.7,1-1c0.8-0.8,1.5-1.8,2.3-2.8L61.5,38.7z M41.8,36.8c0,0.4,0,0.8,0.1,1.1
		c0.1,0.4,0.1,0.7,0.3,1c0.1,0.3,0.3,0.5,0.6,0.7c0.2,0.2,0.5,0.3,0.9,0.3c0.6,0,1.1-0.2,1.5-0.7c0.5-0.5,0.9-1.1,1.2-1.8
		c0.3-0.7,0.6-1.4,0.8-2.1c0.2-0.7,0.3-1.4,0.4-1.8l1.4-6.8c-0.6,0-1.2,0.2-1.8,0.5s-1.2,0.7-1.7,1.3c-0.5,0.5-1,1.2-1.5,1.8
		s-0.8,1.4-1.2,2.2c-0.3,0.8-0.6,1.5-0.8,2.3S41.8,36.2,41.8,36.8z"/>
	<path d="M66,44.3c-1.4,0-2.7-0.3-3.7-0.8c-1.1-0.5-2-1.2-2.7-2.1s-1.3-1.9-1.6-3c-0.4-1.2-0.6-2.4-0.6-3.6c0-0.9,0.1-1.8,0.3-2.8
		c0.2-1,0.5-1.9,0.8-2.8c0.4-0.9,0.8-1.8,1.3-2.7c0.5-0.8,1.1-1.6,1.8-2.2s1.5-1.1,2.3-1.5c0.9-0.4,1.8-0.6,2.8-0.6
		c0.9,0,1.7,0.1,2.4,0.4c0.7,0.3,1.4,0.6,1.9,1.1s0.9,1,1.2,1.7s0.5,1.4,0.5,2.1c0,0.5-0.1,1-0.2,1.5c-0.1,0.5-0.3,1-0.6,1.4
		c-0.3,0.4-0.6,0.7-1,1c-0.4,0.2-0.8,0.4-1.3,0.4c-0.7,0-1.2-0.2-1.4-0.6c-0.2-0.4-0.3-0.9-0.3-1.6c0-0.3,0-0.6,0-0.9s0-0.6,0-0.8
		c0-0.4,0-0.7-0.1-0.9c-0.1-0.2-0.2-0.4-0.5-0.4c-0.6,0-1.2,0.2-1.6,0.5s-0.8,0.7-1.1,1.2c-0.3,0.5-0.6,1-0.8,1.6
		c-0.2,0.6-0.3,1.2-0.4,1.8c-0.1,0.6-0.2,1.2-0.2,1.7c0,0.5,0,1,0,1.4c0,0.6,0,1.1,0.1,1.7c0.1,0.6,0.3,1.2,0.6,1.6
		c0.3,0.5,0.7,0.9,1.1,1.2c0.5,0.3,1.1,0.5,1.8,0.5c0.7,0,1.6-0.2,2.4-0.7c0.9-0.5,1.8-1,2.7-1.7c0.9-0.7,1.8-1.5,2.6-2.3
		c0.8-0.8,1.5-1.6,2.1-2.4l1.6,2.7c-1.2,1.6-2.4,3.1-3.7,4.4c-0.6,0.6-1.2,1.1-1.9,1.6c-0.7,0.5-1.4,1-2.1,1.4
		c-0.7,0.4-1.5,0.7-2.3,1C67.6,44.2,66.8,44.3,66,44.3z"/>
	<path d="M83.2,31.4c0.6-0.7,1.2-1.5,1.8-2.3c0.7-0.8,1.3-1.7,1.9-2.4c0.6-0.8,1.2-1.5,1.8-2.1c0.5-0.6,0.9-1,1.3-1.2
		c0.5-0.3,1.1-0.6,1.8-0.9c0.7-0.2,1.5-0.4,2.3-0.4c0.4,0,0.8,0.1,1.2,0.3c0.4,0.2,0.7,0.5,1,0.9c0.3,0.4,0.5,0.8,0.7,1.3
		c0.2,0.5,0.3,1.1,0.3,1.8c0,0.6-0.2,1.3-0.5,1.9c-0.3,0.6-0.7,1.3-1.2,1.9c-0.5,0.6-1,1.3-1.5,1.9c-0.5,0.6-1,1.3-1.5,2
		c-0.5,0.7-0.8,1.3-1.2,2C91.2,36.7,91,37.4,91,38c0,0.6,0.1,1,0.4,1.2c0.3,0.2,0.7,0.4,1.3,0.4c0.3,0,0.6-0.1,1-0.3
		c0.4-0.2,0.7-0.5,1.1-0.8c0.4-0.3,0.8-0.7,1.2-1.1c0.4-0.4,0.8-0.8,1.1-1.3c0.4-0.4,0.7-0.8,1-1.2c0.3-0.4,0.6-0.7,0.9-1l1.4,5.7
		c-0.5,0.7-1.1,1.3-1.8,1.9c-0.7,0.6-1.5,1.1-2.4,1.5s-1.7,0.8-2.7,1c-0.9,0.2-1.8,0.4-2.6,0.4c-1.1,0-2-0.1-2.7-0.4
		c-0.7-0.3-1.2-0.6-1.6-1.1c-0.4-0.4-0.7-1-0.8-1.5c-0.1-0.6-0.2-1.1-0.2-1.7c0-0.4,0-0.8,0.1-1.3c0.1-0.5,0.2-1.1,0.5-1.7
		c0.2-0.6,0.6-1.4,1-2.1c0.4-0.8,1-1.6,1.7-2.5c0.3-0.3,0.5-0.5,0.8-0.8c0.2-0.2,0.4-0.4,0.6-0.6c0.2-0.2,0.3-0.3,0.4-0.5
		c0.1-0.2,0.1-0.3,0.1-0.5c0-0.3-0.1-0.6-0.2-0.8c-0.1-0.2-0.3-0.3-0.5-0.3c-0.3,0-0.6,0.2-1,0.5c-0.4,0.3-0.9,0.9-1.4,1.8
		l-6.8,11.9c-0.4,0.6-0.7,1-1.1,1.3c-0.4,0.2-0.8,0.4-1.3,0.4c-0.7,0-1.2-0.1-1.6-0.4c-0.4-0.3-0.7-0.7-0.9-1.2
		c-0.2-0.5-0.3-1-0.4-1.7c-0.1-0.6-0.1-1.3-0.1-2c0-0.9,0-2,0.1-3.5s0.2-3,0.3-4.8s0.3-3.5,0.5-5.4c0.2-1.9,0.5-3.7,0.8-5.5
		c0.1-0.6,0.2-1.4,0.4-2.3c0.2-0.9,0.4-1.9,0.6-2.9s0.6-2.1,0.9-3.2c0.3-1.1,0.7-2.2,1.2-3.3c0.5-1.1,1-2.1,1.5-3
		c0.6-1,1.2-1.8,1.9-2.5s1.5-1.3,2.3-1.7s1.8-0.6,2.8-0.6c0.8,0,1.4,0.1,1.9,0.4c0.5,0.3,0.9,0.6,1.2,1.1c0.3,0.5,0.5,1,0.6,1.6
		s0.2,1.3,0.2,2.1c0,1.3-0.2,2.7-0.5,4.2c-0.3,1.5-0.8,3-1.3,4.5c-0.5,1.5-1.1,3-1.7,4.4c-0.6,1.4-1.2,2.7-1.7,3.9
		c-0.6,1.2-1,2.1-1.5,2.9c-0.4,0.8-0.7,1.3-0.8,1.6l-2.7,4.1L83.2,31.4z M87.7,5.5c-0.5,0-0.9,0.2-1.3,0.5c-0.4,0.3-0.7,0.7-1,1.3
		c-0.3,0.6-0.6,1.3-0.9,2.1c-0.3,0.8-0.7,1.7-1.1,2.7c-0.2,0.9-0.5,1.8-0.7,2.7s-0.4,1.9-0.6,2.8c-0.2,0.9-0.3,1.8-0.5,2.8
		s-0.2,1.8-0.3,2.6c-0.2,1.9-0.4,3.8-0.6,5.6c0.3-1,0.7-2.1,1.1-3.3s0.8-2.4,1.2-3.5c0.4-1.2,0.8-2.3,1.1-3.3c0.3-1,0.6-1.9,0.9-2.6
		c0.1-0.3,0.3-0.8,0.5-1.3c0.2-0.5,0.4-1.1,0.6-1.6c0.2-0.6,0.5-1.2,0.7-1.8c0.2-0.6,0.4-1.2,0.6-1.8C87.8,8.6,87.9,8,88,7.5
		c0.1-0.5,0.2-0.9,0.2-1.3C88.2,5.7,88.1,5.5,87.7,5.5z"/>
	<path d="M97.3,45.2c0-0.1,0-0.5,0.1-1.4c0-0.9,0.1-2,0.2-3.4c0.1-1.4,0.3-3.1,0.4-5s0.4-3.8,0.7-5.9s0.7-4.2,1.1-6.4
		s0.9-4.3,1.5-6.4c0.6-2.1,1.2-4,1.9-5.9c0.7-1.8,1.5-3.4,2.4-4.8s1.9-2.5,3-3.3c1.1-0.8,2.3-1.2,3.6-1.2c0.5,0,1.1,0.1,1.6,0.3
		s1.1,0.5,1.6,0.9c0.5,0.4,0.9,1,1.2,1.6c0.3,0.7,0.5,1.5,0.5,2.5c0,0.9-0.1,1.9-0.4,3.1c-0.3,1.2-0.7,2.4-1.2,3.8
		c-0.5,1.3-1.1,2.7-1.8,4.2c-0.7,1.4-1.5,2.9-2.3,4.3c-0.8,1.4-1.7,2.9-2.6,4.2s-1.9,2.7-2.8,3.9l0,0.4c0.3-0.2,0.5-0.3,0.7-0.3
		c0.2,0,0.3-0.1,0.5-0.1c0.2,0,0.4,0,0.5,0.1s0.2,0.1,0.3,0.1c0.1,0,0.2,0.1,0.3,0.1c0.1,0,0.2,0.1,0.4,0.1c1.5,0,2.9-0.2,4-0.5
		s2.2-0.8,3-1.2c0.9-0.5,1.8-1.1,2.4-1.8l-0.5,5.6c-1,0.6-2.1,1-3.2,1.3c-1.1,0.3-2.1,0.5-3.1,0.7c-1.1,0.2-2.2,0.3-3.3,0.3
		c0.6,1,1.1,2.1,1.5,3.2c0.4,0.9,0.7,2,1,3.1c0.3,1.2,0.5,2.3,0.5,3.5c0,0.1,0,0.4-0.1,0.9c0,0.4-0.1,1-0.2,1.6
		c-0.1,0.6-0.2,1.4-0.4,2.1c-0.2,0.8-0.4,1.6-0.7,2.4c-0.3,0.8-0.6,1.6-1,2.3c-0.4,0.7-0.8,1.4-1.4,2c-0.5,0.6-1.1,1-1.8,1.4
		c-0.7,0.4-1.4,0.5-2.3,0.5s-1.6-0.2-2.2-0.6c-0.6-0.4-1.2-0.9-1.6-1.6c-0.4-0.7-0.8-1.4-1.1-2.3c-0.3-0.9-0.5-1.8-0.7-2.8
		c-0.2-1-0.3-2-0.4-3C97.3,47.1,97.3,46.1,97.3,45.2z M103.5,34.1c-0.1,0-0.1,0.2-0.2,0.5c-0.1,0.3-0.1,0.8-0.2,1.3
		s-0.1,1.2-0.2,1.8s-0.1,1.3-0.2,2c0,0.7-0.1,1.3-0.1,1.8s0,1,0,1.3c0,2.3,0,4.1,0.1,5.4c0.1,1.3,0.2,2.4,0.3,3s0.3,1.1,0.4,1.4
		c0.2,0.2,0.3,0.3,0.5,0.3c0.5,0,0.9-0.2,1.3-0.7c0.3-0.5,0.6-1.1,0.7-1.8c0.2-0.7,0.3-1.5,0.3-2.4s0.1-1.7,0.1-2.5
		c0-0.5,0-1.2-0.1-2c-0.1-0.8-0.2-1.6-0.3-2.5c-0.1-0.9-0.3-1.7-0.5-2.6c-0.2-0.8-0.4-1.6-0.6-2.3c-0.2-0.7-0.4-1.2-0.6-1.6
		C103.8,34.3,103.6,34.1,103.5,34.1z M109.1,8.9c-0.9,2.2-1.6,4.2-2.1,5.9s-0.9,3.2-1.2,4.5c-0.3,1.3-0.4,2.5-0.6,3.5
		c-0.1,1-0.2,1.9-0.3,2.8c0.9-1.8,1.9-3.5,2.8-5.2c1-1.7,1.8-3.3,2.6-4.8c0.8-1.5,1.4-2.8,1.9-3.9c0.5-1.1,0.7-2,0.7-2.6
		c0-0.8-0.1-1.4-0.3-1.8c-0.2-0.4-0.5-0.6-0.9-0.6c-0.7,0-1.2,0.2-1.6,0.6S109.4,8.2,109.1,8.9z"/>
	<path d="M129.4,39.4c-0.6,0.5-1.2,1.1-2.1,1.6c-0.8,0.6-1.7,1.1-2.7,1.6s-1.9,0.9-2.9,1.2c-1,0.3-1.9,0.5-2.8,0.5
		c-0.8,0-1.5-0.1-2-0.3c-0.5-0.2-1-0.5-1.3-0.9c-0.3-0.4-0.6-0.9-0.7-1.5c-0.1-0.6-0.2-1.2-0.2-1.9c0-1,0.1-2.1,0.3-3.4
		c0.2-1.3,0.5-2.6,0.8-4c0.3-1.4,0.7-2.8,1-4.1c0.4-1.4,0.7-2.6,1-3.8c0.1-0.4,0.3-0.7,0.6-1c0.3-0.3,0.7-0.5,1.1-0.7
		c0.4-0.2,0.8-0.3,1.3-0.4c0.4-0.1,0.8-0.1,1.2-0.1c0.6,0,1.1,0.1,1.3,0.4c0.2,0.2,0.3,0.6,0.3,1c0,0.3-0.1,0.8-0.2,1.5
		c-0.2,0.6-0.3,1.4-0.6,2.2c-0.2,0.8-0.5,1.7-0.7,2.6c-0.3,0.9-0.5,1.9-0.7,2.8c-0.2,0.9-0.4,1.8-0.6,2.7c-0.2,0.9-0.2,1.7-0.2,2.4
		c0,0.7,0.1,1.2,0.2,1.6c0.2,0.4,0.5,0.6,0.9,0.6c0.6,0,1.2-0.2,1.8-0.6c0.7-0.4,1.4-0.9,2.1-1.4s1.4-1.1,2-1.7
		c0.7-0.6,1.2-1.1,1.8-1.5V39.4z M119.1,15.7c0-0.4,0.1-0.8,0.2-1.2c0.2-0.4,0.4-0.9,0.8-1.3c0.3-0.4,0.8-0.7,1.4-1s1.3-0.4,2.2-0.4
		c0.5,0,1,0.1,1.5,0.2c0.5,0.1,0.9,0.3,1.2,0.6c0.4,0.3,0.6,0.6,0.8,1c0.2,0.4,0.3,0.9,0.3,1.5c0,0.5-0.1,1-0.3,1.5
		s-0.4,0.9-0.8,1.3s-0.8,0.7-1.4,0.9c-0.6,0.2-1.2,0.4-2,0.4c-1.4,0-2.4-0.3-3-1C119.4,17.6,119.1,16.7,119.1,15.7z"/>
	<path d="M127,35.4c0.9-0.7,1.6-1.4,2.1-1.8s1-0.9,1.4-1.4c0.4-0.4,0.7-0.8,1.1-1.2c0.3-0.4,0.7-0.9,1.1-1.5c0.4-0.6,1-1.3,1.6-2.1
		s1.4-1.9,2.4-3.1c0.2-0.3,0.4-0.5,0.7-0.8s0.5-0.5,0.8-0.7c0.3-0.2,0.6-0.4,1-0.5c0.4-0.1,0.8-0.2,1.2-0.2c0.7,0,1.3,0.1,1.7,0.2
		c0.4,0.2,0.7,0.4,0.9,0.6c0.2,0.2,0.3,0.5,0.3,0.7s0,0.5,0,0.7c0,0.4-0.1,0.8-0.4,1.2c-0.3,0.4-0.6,0.9-1,1.3
		c-0.4,0.4-0.7,0.8-1,1.1c-0.3,0.3-0.5,0.6-0.5,0.8c0,0.5,0,0.9,0.1,1.3c0.1,0.4,0.2,0.8,0.3,1.2s0.2,0.8,0.4,1.2s0.2,0.9,0.4,1.5
		c0.1,0.6,0.2,1.2,0.3,1.9c0.1,0.7,0.1,1.6,0.1,2.6c0.6-0.4,1.1-0.7,1.8-1c0.6-0.3,1.3-0.6,2-0.9s1.4-0.7,2.1-1.1
		c0.7-0.4,1.5-0.9,2.2-1.4l0,5.2c-1,0.7-2.1,1.4-3.3,2.1c-1.3,0.6-2.6,1.2-3.9,1.7c-1.4,0.5-2.8,0.9-4.2,1.2c-1.4,0.3-2.7,0.4-4,0.4
		c-0.9,0-1.8-0.1-2.5-0.3s-1.5-0.4-2.1-0.8c-0.6-0.4-1.1-0.8-1.4-1.4s-0.6-1.3-0.7-2.1c-0.2,0-0.4,0.1-0.6,0.1c-0.2,0-0.4,0-0.6,0
		c-0.2,0-0.5,0-0.7,0c-0.2,0-0.4-0.1-0.6-0.2c-0.2-0.1-0.3-0.3-0.4-0.5s-0.1-0.5-0.1-1c0-0.4,0.1-0.7,0.3-1s0.4-0.6,0.6-0.8
		c0.2-0.2,0.5-0.5,0.7-0.6S126.9,35.6,127,35.4z M130,38.4c0.2,0,0.4,0.1,0.6,0.3c0.2,0.2,0.5,0.5,0.8,0.8c0.3,0.3,0.6,0.5,1,0.8
		c0.4,0.2,0.8,0.3,1.3,0.3c0.6,0,1.1-0.1,1.5-0.3c0.4-0.2,0.7-0.5,0.9-0.8c0.2-0.3,0.4-0.7,0.5-1.2s0.1-0.9,0.1-1.4
		c0-0.4,0-0.8-0.1-1.3s-0.1-0.8-0.2-1.2c-0.1-0.4-0.2-0.8-0.3-1.1c-0.1-0.3-0.2-0.6-0.3-0.9L130,38.4z"/>
	<path d="M155.7,30c0.6-0.8,1.3-1.7,2.1-2.7c0.8-1,1.6-1.8,2.4-2.7s1.7-1.5,2.5-2.1c0.8-0.5,1.6-0.8,2.4-0.8c0.2,0,0.4,0,0.6,0.1
		c0.2,0.1,0.5,0.2,0.7,0.4s0.4,0.4,0.5,0.8c0.1,0.3,0.2,0.8,0.2,1.3c0,1-0.1,2.1-0.4,3.1c-0.3,1-0.6,2-1,3c-0.3,1-0.7,2-0.9,3
		c-0.3,1-0.4,2.1-0.4,3.2c0,0.6,0.1,1.1,0.3,1.5s0.4,0.6,0.7,0.6c0.4,0,0.8-0.1,1.2-0.2c0.4-0.2,0.8-0.4,1.2-0.6s0.8-0.5,1.2-0.8
		c0.4-0.3,0.8-0.6,1.1-1c0.8-0.8,1.5-1.3,2.5-1.7c0.6,0.6-0.5-0.4,1.3,1.5c1.7,1.8-1.4,3.7-0.9,3.6c-0.3,0.2-0.6,0.5-1,0.8
		s-0.9,0.7-1.4,1c-0.5,0.4-1.1,0.7-1.7,1.1c-0.6,0.4-1.2,0.7-1.8,1c-0.6,0.3-1.2,0.5-1.8,0.7s-1.2,0.3-1.7,0.3
		c-0.8,0-1.6-0.2-2.2-0.7s-1.1-1-1.5-1.7c-0.4-0.7-0.7-1.5-0.9-2.3c-0.2-0.8-0.3-1.6-0.3-2.4c0-0.5,0.1-1,0.2-1.7
		c0.1-0.6,0.3-1.2,0.5-1.8c0.2-0.6,0.4-1.2,0.6-1.8c0.2-0.6,0.5-1.1,0.7-1.6c0.2-0.5,0.4-0.8,0.5-1.1s0.3-0.5,0.3-0.5l-0.5-0.1
		c-0.3,0.2-0.7,0.6-1.3,1.3s-1.3,1.6-2.1,2.6s-1.6,2.2-2.4,3.6c-0.8,1.3-1.6,2.7-2.3,4.1c-0.3,0.7-0.6,1.3-0.8,1.8
		c-0.2,0.5-0.4,0.9-0.6,1.3c-0.2,0.3-0.4,0.6-0.7,0.8c-0.2,0.2-0.6,0.3-0.9,0.3c-0.5,0-0.9-0.1-1.2-0.4c-0.3-0.3-0.5-0.7-0.7-1.2
		c-0.2-0.5-0.3-1-0.3-1.7c0-0.6-0.1-1.2-0.1-1.9c0-1,0-2.4,0-4c0-1.7,0.1-3.5,0.2-5.6c0.1-2,0.3-4.2,0.5-6.4c0.2-2.2,0.6-4.5,1-6.7
		c0.4-2.2,1-4.3,1.6-6.3c0.6-2,1.4-3.7,2.3-5.3c0.9-1.5,2-2.7,3.2-3.6S159,0,160.6,0c0.8,0,1.5,0.1,2,0.4c0.5,0.2,1,0.6,1.3,1
		c0.3,0.4,0.5,1,0.7,1.6s0.2,1.3,0.2,2.1c0,1.1-0.2,2.4-0.5,3.8s-0.8,2.8-1.3,4.3c-0.5,1.5-1.1,3-1.8,4.5c-0.7,1.5-1.4,3-2.1,4.5
		s-1.4,2.8-2.1,4.1c-0.7,1.3-1.3,2.4-1.8,3.4L155.7,30z M157.7,15.7c0.9-2.4,1.6-4.3,2-6c0.4-1.6,0.6-2.8,0.6-3.6
		c0-1.2-0.2-1.8-0.5-1.8c-0.4,0-1,0.7-1.8,2c-0.8,1.3-1.7,3.2-2.8,5.7c-0.3,0.8-0.5,1.7-0.7,2.6c-0.2,0.9-0.4,1.8-0.6,2.7
		c-0.2,0.9-0.3,1.8-0.5,2.7c-0.1,0.9-0.3,1.7-0.4,2.5c-0.3,1.8-0.5,3.6-0.6,5.4c0.4-1,0.9-2,1.4-3.2c0.5-1.1,1-2.3,1.5-3.4
		c0.5-1.1,0.9-2.2,1.4-3.2C157.1,17.2,157.5,16.4,157.7,15.7z"/>
</g>
<g>
	<path d="M178.3,32c0,0,0,0.1,0,0.2c0,0.1,0,0.3-0.1,0.4c0,0.2-0.1,0.3-0.2,0.5c-0.1,0.2-0.2,0.3-0.4,0.5c-0.2,0.1-0.4,0.3-0.6,0.4
		c-0.2,0.1-0.5,0.1-0.9,0.1c-0.3,0-0.5,0-0.7-0.1c-0.2-0.1-0.4-0.2-0.6-0.3c-0.2-0.1-0.3-0.3-0.4-0.6c-0.1-0.2-0.1-0.5-0.1-0.8
		c0-0.3,0-0.5,0.1-0.8s0.2-0.5,0.4-0.7c0.2-0.2,0.4-0.4,0.6-0.5c0.3-0.1,0.6-0.2,0.9-0.2c0.6,0,1.1,0.2,1.4,0.5
		C178.2,31,178.3,31.4,178.3,32z"/>
</g>
</svg>
