<?xml version="1.0" encoding="utf-8"?>
<!-- Generator: Adobe Illustrator 19.2.1, SVG Export Plug-In . SVG Version: 6.00 Build 0)  -->
<svg version="1.1" id="Layer_1" xmlns="http://www.w3.org/2000/svg" xmlns:xlink="http://www.w3.org/1999/xlink" x="0px" y="0px"
	 width="280.9px" height="122.2px" viewBox="0 0 280.9 122.2" style="enable-background:new 0 0 280.9 122.2;" xml:space="preserve"
	>
<g>
	<g>
		<path d="M15.6,43.4c1.4-1.7,2.5-3,3.8-4.1c1.1-1.1,2.2-1.6,3.3-1.6c1.4,0,2.7,0.3,3.8,0.9c1.1,0.6,2,1.4,2.8,2.5s1.4,2.2,1.7,3.6
			s0.6,2.8,0.6,4.3c0,1.3,0,2.4-0.2,3.5c-0.2,1.1-0.3,2.2-0.5,3.3c-0.3,1.1-0.6,2-1.1,3.2c-0.5,1.1-1.1,2-1.7,3.3
			c0.9-0.5,1.7-0.9,2.7-1.4c0.9-0.5,1.7-0.9,2.7-1.6c0.9-0.6,1.9-1.3,2.7-1.9c0.9-0.8,1.9-1.6,2.8-2.5l2.8,6
			c-1.3,1.3-2.7,2.2-3.9,3.2c-1.3,0.9-2.7,1.7-4.1,2.4s-2.8,1.3-4.4,1.7s-3.2,0.9-4.9,1.3c-0.5,0.5-0.9,0.8-1.7,1.3
			c-0.8,0.5-1.4,0.8-2.2,1.1c-0.8,0.3-1.7,0.8-2.5,1.1h-0.9c-2,0-4.1-0.3-6.1-0.8s-3.6-1.4-5.2-2c-1.9-0.9-3.8-1.7-5.5-2.8
			c0-1.9,0.2-4.3,0.5-6.6c0.2-2.2,0.5-4.7,0.8-7.6c0.3-2.8,0.8-6.1,1.4-9.8c0.3-2.4,0.9-5,1.4-7.9c0.6-3,1.3-5.8,2-8.8
			s1.7-5.8,2.7-8.7s2-5.5,3.3-7.7s2.5-3.9,3.9-5.4c1.3-1.3,2.8-1.9,4.6-1.9c1.9,0,3.3,0.3,4.4,0.9s2,1.4,2.5,2.5
			c0.6,1.1,0.9,2.4,1.3,3.8c0.2,1.4,0.3,3,0.3,4.7c0,2.4-0.5,4.7-1.3,7.1c-0.8,2.5-2,4.9-3.3,7.4c-1.4,2.4-3,4.9-4.6,7.1
			c-1.7,2.4-3.5,4.6-5,6.6L15.6,43.4z M18.9,46.1c-0.8,0-1.7,0.2-2.5,0.5c-0.8,0.3-1.6,0.9-2.4,1.6c-0.8,0.8-1.4,1.7-1.9,2.8
			c-0.6,1.1-0.9,2.5-1.3,4.1c-0.2,1.3-0.5,2.5-0.5,3.6s-0.3,2-0.3,3c-0.3,1.1-0.3,2-0.5,2.8c0.8,0.3,1.6,0.5,2.4,0.6
			c0.6,0.2,1.4,0.3,2.2,0.5c0.8,0.2,1.6,0.2,2.2,0.2c0.8,0,1.6-0.3,2.2-0.8s1.3-1.1,1.9-1.9c0.5-0.8,0.9-1.7,1.4-2.8
			c0.3-1.1,0.6-2.2,0.9-3.3c0.3-1.1,0.5-2.2,0.5-3.3c0-1.1,0.2-2,0.2-3c0-0.6,0-1.3-0.2-1.7c-0.2-0.5-0.3-1.1-0.8-1.4
			c-0.3-0.5-0.8-0.8-1.4-0.9C20.6,46.3,19.8,46.1,18.9,46.1z M22.3,12.9c0-0.2,0-0.3,0-0.6c0-0.3-0.2-0.6-0.3-0.9
			c-0.2-0.3-0.3-0.6-0.6-0.9s-0.6-0.5-0.9-0.5c-0.5,0-0.9,0.3-1.6,1.1c-0.6,0.8-1.1,1.6-1.6,2.8c-0.5,1.1-0.9,2.5-1.4,4.1
			c-0.5,1.6-0.9,3.2-1.4,4.9c-0.5,1.7-0.9,3.5-1.3,5.2c-0.5,1.7-0.8,3.5-1.1,4.9c-0.3,1.6-0.6,3-0.8,4.3c-0.3,1.3-0.5,2.4-0.6,3.2
			c0.8-1.3,1.4-2.7,2.2-3.9c0.8-1.4,1.6-2.8,2.5-4.3s1.6-3,2.4-4.6c0.8-1.6,1.6-3.2,2.2-4.7s1.1-3.3,1.6-4.9
			C22,16.2,22.3,14.6,22.3,12.9z"/>
		<path d="M46.5,72.8c-1.3,0-2.5-0.6-3.6-1.7c-1.1-1.1-2-2.7-3-4.6c-0.8-1.9-1.4-4.3-1.9-6.8c-0.5-2.5-0.8-5.2-0.8-8
			c0-2.2,0.2-4.6,0.5-7.1c0.3-2.5,0.8-5.2,1.4-7.9c0.6-2.7,1.3-5.4,2.2-8s1.7-5.4,2.8-7.9c1.1-2.5,2.2-4.9,3.5-6.9
			c1.3-2,2.5-4.1,3.9-5.7s2.8-2.8,4.3-3.8c1.3-0.9,2.8-1.4,4.4-1.4c1.1,0,1.9,0.2,2.5,0.8c0.6,0.5,1.3,1.1,1.6,1.9
			c0.3,0.8,0.6,1.7,0.8,2.7s0.2,2,0.2,3c0,2.2-0.3,4.6-0.8,6.9s-1.3,4.7-2,7.1c-0.9,2.4-1.9,4.7-3.2,7.3s-2.4,4.7-3.6,7.1
			c-1.3,2.4-2.5,4.7-3.8,6.9c-1.3,2.4-2.5,4.6-3.6,6.8c-0.2,0.3-0.3,0.6-0.3,0.9c-0.2,0.3-0.3,0.8-0.3,1.3c-0.2,0.5-0.3,0.9-0.3,1.4
			c-0.2,0.5-0.2,0.9-0.3,1.4v0.5c0,0.6,0,1.3,0.2,1.9s0.3,1.1,0.5,1.6c0.2,0.5,0.5,0.8,0.6,1.1c0.2,0.3,0.5,0.5,0.6,0.5
			c0.5,0,0.9-0.2,1.6-0.3c0.6-0.2,1.3-0.5,1.9-0.8c0.6-0.3,1.4-0.6,2-1.1c0.6-0.5,1.4-0.8,2-1.3c1.6-0.9,3.2-2.2,4.7-3.5l3,7.6
			c-2.2,1.6-4.3,3-6.5,4.1c-0.9,0.5-1.9,0.9-2.8,1.6c-0.9,0.5-1.9,0.9-3,1.3c-1.1,0.3-1.9,0.6-2.8,0.9
			C48.2,72.6,47.2,72.8,46.5,72.8z M46.5,43.6c1.1-1.9,2.2-4.1,3.5-6.6c1.3-2.4,2.4-4.9,3.5-7.6c1.1-2.5,2-5.2,2.8-7.7
			s1.3-4.9,1.6-7.1c0-0.6,0-1.3,0-1.7c0-0.5-0.2-0.8-0.3-0.8c-0.6,0-1.4,0.5-2.2,1.4c-0.8,0.9-1.6,2.2-2.4,3.6
			c-0.8,1.6-1.6,3.3-2.4,5.4c-0.8,2-1.4,4.3-2,6.6s-1.1,4.7-1.4,7.3C46.6,39,46.5,41.4,46.5,43.6z"/>
		<path d="M97.2,63.9c-0.6,0.8-1.3,1.7-2.2,2.7c-0.9,1.1-2,2-3.2,3s-2.4,1.7-3.8,2.4c-1.4,0.6-2.7,0.9-3.9,0.9c-1.6,0-3-0.5-3.9-1.6
			c-1.1-1.1-2-2.5-2.8-4.6c-0.6,0.6-1.3,1.4-2.2,2c-0.9,0.6-1.7,1.4-2.8,1.9c-0.9,0.6-2,1.1-3.2,1.4c-1.1,0.3-2.2,0.5-3.3,0.5
			s-2.4-0.2-3.5-0.8c-1.1-0.5-2-1.1-3-2c-0.9-0.9-1.6-1.9-2-3.3c-0.5-1.3-0.8-2.7-0.8-4.3c0-1.9,0.3-3.6,0.8-5.7
			c0.5-1.9,1.3-3.8,2-5.7c0.9-1.9,1.9-3.6,3.2-5.2c1.3-1.6,2.5-3,4.1-4.3c1.4-1.3,3-2.2,4.6-2.8c1.6-0.8,3.3-1.1,4.9-1.1
			c0.6,0,0.9,0.2,1.3,0.3c0.3,0.2,0.6,0.5,0.8,0.8c0.2,0.3,0.5,0.6,0.6,0.8c0.2,0.3,0.5,0.5,0.8,0.6c0.3,0.2,0.6,0.2,0.9,0.3
			c0.3,0.2,0.6,0,0.9,0s0.5,0,0.8,0c0.3,0,0.5,0,0.8,0c0.3,0,0.6,0,0.9,0.2c0.3,0,0.6,0.2,0.8,0.5c0.3,0.3,0.5,0.6,0.6,0.9
			c0.2,0.5,0.2,1.1,0.2,1.7c0,1.1-0.2,2.5-0.3,3.9c-0.3,1.4-0.5,2.8-0.8,4.4c-0.3,1.6-0.6,3-0.8,4.4s-0.3,2.8-0.3,4.3
			c0,1.1,0.2,2,0.3,2.7c0.2,0.6,0.6,0.9,1.3,0.9c0.5,0,1.1-0.2,1.6-0.3c0.6-0.3,1.1-0.6,1.7-0.9c0.6-0.5,1.1-0.9,1.7-1.4
			c0.6-0.5,1.1-1.1,1.6-1.6c1.3-1.3,2.4-2.8,3.6-4.4L97.2,63.9z M66.2,60.9c0,0.6,0,1.3,0.2,1.7c0.2,0.6,0.2,1.1,0.5,1.6
			c0.2,0.5,0.5,0.8,0.9,1.1c0.3,0.3,0.8,0.5,1.4,0.5c0.9,0,1.7-0.3,2.4-1.1c0.8-0.8,1.4-1.7,1.9-2.8c0.5-1.1,0.9-2.2,1.3-3.3
			c0.3-1.1,0.5-2.2,0.6-2.8L77.5,45c-0.9,0-1.9,0.3-2.8,0.8c-0.9,0.5-1.9,1.1-2.7,2c-0.8,0.8-1.6,1.9-2.4,2.8
			c-0.8,0.9-1.3,2.2-1.9,3.5c-0.5,1.3-0.9,2.4-1.3,3.6C66.2,59,66.2,60,66.2,60.9z"/>
		<path d="M104.3,72.8c-2.2,0-4.3-0.5-5.8-1.3c-1.7-0.8-3.2-1.9-4.3-3.3c-1.1-1.4-2-3-2.5-4.7c-0.6-1.9-0.9-3.8-0.9-5.7
			c0-1.4,0.2-2.8,0.5-4.4c0.3-1.6,0.8-3,1.3-4.4c0.6-1.4,1.3-2.8,2-4.3c0.8-1.3,1.7-2.5,2.8-3.5s2.4-1.7,3.6-2.4
			c1.4-0.6,2.8-0.9,4.4-0.9c1.4,0,2.7,0.2,3.8,0.6c1.1,0.5,2.2,0.9,3,1.7c0.8,0.8,1.4,1.6,1.9,2.7c0.5,1.1,0.8,2.2,0.8,3.3
			c0,0.8-0.2,1.6-0.3,2.4c-0.2,0.8-0.5,1.6-0.9,2.2c-0.5,0.6-0.9,1.1-1.6,1.6c-0.6,0.3-1.3,0.6-2,0.6c-1.1,0-1.9-0.3-2.2-0.9
			c-0.3-0.6-0.5-1.4-0.5-2.5c0-0.5,0-0.9,0-1.4c0-0.5,0-0.9,0-1.3c0-0.6,0-1.1-0.2-1.4c-0.2-0.3-0.3-0.6-0.8-0.6
			c-0.9,0-1.9,0.3-2.5,0.8c-0.6,0.5-1.3,1.1-1.7,1.9c-0.5,0.8-0.9,1.6-1.3,2.5c-0.3,0.9-0.5,1.9-0.6,2.8c-0.2,0.9-0.3,1.9-0.3,2.7
			c0,0.8,0,1.6,0,2.2c0,0.9,0,1.7,0.2,2.7c0.2,0.9,0.5,1.9,0.9,2.5c0.5,0.8,1.1,1.4,1.7,1.9c0.8,0.5,1.7,0.8,2.8,0.8
			c1.1,0,2.5-0.3,3.8-1.1c1.4-0.8,2.8-1.6,4.3-2.7c1.4-1.1,2.8-2.4,4.1-3.6c1.3-1.3,2.4-2.5,3.3-3.8l2.5,4.3
			c-1.9,2.5-3.8,4.9-5.8,6.9c-0.9,0.9-1.9,1.7-3,2.5c-1.1,0.8-2.2,1.6-3.3,2.2c-1.1,0.6-2.4,1.1-3.6,1.6
			C106.8,72.6,105.6,72.8,104.3,72.8z"/>
		<path d="M131.4,52.4c0.9-1.1,1.9-2.4,2.8-3.6c1.1-1.3,2-2.7,3-3.8c0.9-1.3,1.9-2.4,2.8-3.3c0.8-0.9,1.4-1.6,2-1.9
			c0.8-0.5,1.7-0.9,2.8-1.4c1.1-0.3,2.4-0.6,3.6-0.6c0.6,0,1.3,0.2,1.9,0.5c0.6,0.3,1.1,0.8,1.6,1.4s0.8,1.3,1.1,2
			c0.3,0.8,0.5,1.7,0.5,2.8c0,0.9-0.3,2-0.8,3s-1.1,2-1.9,3c-0.8,0.9-1.6,2-2.4,3c-0.8,0.9-1.6,2-2.4,3.2c-0.8,1.1-1.3,2-1.9,3.2
			c-0.3,0.9-0.6,2-0.6,3s0.2,1.6,0.6,1.9c0.5,0.3,1.1,0.6,2,0.6c0.5,0,0.9-0.2,1.6-0.5c0.6-0.3,1.1-0.8,1.7-1.3
			c0.6-0.5,1.3-1.1,1.9-1.7c0.6-0.6,1.3-1.3,1.7-2c0.6-0.6,1.1-1.3,1.6-1.9c0.5-0.6,0.9-1.1,1.4-1.6l2.2,9c-0.8,1.1-1.7,2-2.8,3
			c-1.1,0.9-2.4,1.7-3.8,2.4s-2.7,1.3-4.3,1.6c-1.4,0.3-2.8,0.6-4.1,0.6c-1.7,0-3.2-0.2-4.3-0.6c-1.1-0.5-1.9-0.9-2.5-1.7
			c-0.6-0.6-1.1-1.6-1.3-2.4c-0.2-0.9-0.3-1.7-0.3-2.7c0-0.6,0-1.3,0.2-2c0.2-0.8,0.3-1.7,0.8-2.7c0.3-0.9,0.9-2.2,1.6-3.3
			c0.6-1.3,1.6-2.5,2.7-3.9c0.5-0.5,0.8-0.8,1.3-1.3c0.3-0.3,0.6-0.6,0.9-0.9c0.3-0.3,0.5-0.5,0.6-0.8c0.2-0.3,0.2-0.5,0.2-0.8
			c0-0.5-0.2-0.9-0.3-1.3c-0.2-0.3-0.5-0.5-0.8-0.5c-0.5,0-0.9,0.3-1.6,0.8c-0.6,0.5-1.4,1.4-2.2,2.8l-10.7,18.8
			c-0.6,0.9-1.1,1.6-1.7,2c-0.6,0.3-1.3,0.6-2,0.6c-1.1,0-1.9-0.2-2.5-0.6c-0.6-0.5-1.1-1.1-1.4-1.9c-0.3-0.8-0.5-1.6-0.6-2.7
			c-0.2-0.9-0.2-2-0.2-3.2c0-1.4,0-3.2,0.2-5.5c0.2-2.4,0.3-4.7,0.5-7.6c0.2-2.8,0.5-5.5,0.8-8.5c0.3-3,0.8-5.8,1.3-8.7
			c0.2-0.9,0.3-2.2,0.6-3.6c0.3-1.4,0.6-3,0.9-4.6c0.3-1.6,0.9-3.3,1.4-5c0.5-1.7,1.1-3.5,1.9-5.2s1.6-3.3,2.4-4.7
			c0.9-1.6,1.9-2.8,3-3.9c1.1-1.1,2.4-2,3.6-2.7c1.3-0.6,2.8-0.9,4.4-0.9c1.3,0,2.2,0.2,3,0.6c0.8,0.5,1.4,0.9,1.9,1.7
			c0.5,0.8,0.8,1.6,0.9,2.5c0.2,0.9,0.3,2,0.3,3.3c0,2-0.3,4.3-0.8,6.6s-1.3,4.7-2,7.1c-0.8,2.4-1.7,4.7-2.7,6.9
			c-0.9,2.2-1.9,4.3-2.7,6.1c-0.9,1.9-1.6,3.3-2.4,4.6c-0.6,1.3-1.1,2-1.3,2.5l-4.3,6.5L131.4,52.4z M138.5,11.6
			c-0.8,0-1.4,0.3-2,0.8c-0.6,0.5-1.1,1.1-1.6,2c-0.5,0.9-0.9,2-1.4,3.3c-0.5,1.3-1.1,2.7-1.7,4.3c-0.3,1.4-0.8,2.8-1.1,4.3
			c-0.3,1.4-0.6,3-0.9,4.4c-0.3,1.4-0.5,2.8-0.8,4.4c-0.3,1.6-0.3,2.8-0.5,4.1c-0.3,3-0.6,6-0.9,8.8c0.5-1.6,1.1-3.3,1.7-5.2
			c0.6-1.9,1.3-3.8,1.9-5.5c0.6-1.9,1.3-3.6,1.7-5.2c0.5-1.6,0.9-3,1.4-4.1c0.2-0.5,0.5-1.3,0.8-2c0.3-0.8,0.6-1.7,0.9-2.5
			c0.3-0.9,0.8-1.9,1.1-2.8c0.3-0.9,0.6-1.9,0.9-2.8c0.6-1.3,0.8-2.2,0.9-3s0.3-1.4,0.3-2C139.3,11.9,139.1,11.6,138.5,11.6z"/>
		<path d="M153.6,74.2c0-0.2,0-0.8,0.2-2.2c0-1.4,0.2-3.2,0.3-5.4c0.2-2.2,0.5-4.9,0.6-7.9c0.2-3,0.6-6,1.1-9.3
			c0.5-3.3,1.1-6.6,1.7-10.1c0.6-3.5,1.4-6.8,2.4-10.1c0.9-3.3,1.9-6.3,3-9.3c1.1-2.8,2.4-5.4,3.8-7.6s3-3.9,4.7-5.2
			s3.6-1.9,5.7-1.9c0.8,0,1.7,0.2,2.5,0.5c0.8,0.3,1.7,0.8,2.5,1.4s1.4,1.6,1.9,2.5c0.5,1.1,0.8,2.4,0.8,3.9c0,1.4-0.2,3-0.6,4.9
			s-1.1,3.8-1.9,6c-0.8,2-1.7,4.3-2.8,6.6c-1.1,2.2-2.4,4.6-3.6,6.8c-1.3,2.2-2.7,4.6-4.1,6.6s-3,4.3-4.4,6.1v0.6
			c0.5-0.3,0.8-0.5,1.1-0.5c0.3,0,0.5-0.2,0.8-0.2c0.3,0,0.6,0,0.8,0.2c0.2,0.2,0.3,0.2,0.5,0.2s0.3,0.2,0.5,0.2s0.3,0.2,0.6,0.2
			c2.4,0,4.6-0.3,6.3-0.8c1.7-0.5,3.5-1.3,4.7-1.9c1.4-0.8,2.8-1.7,3.8-2.8l-0.8,8.8c-1.6,0.9-3.3,1.6-5,2c-1.7,0.5-3.3,0.8-4.9,1.1
			c-1.7,0.3-3.5,0.5-5.2,0.5c0.9,1.6,1.7,3.3,2.4,5c0.6,1.4,1.1,3.2,1.6,4.9c0.5,1.9,0.8,3.6,0.8,5.5c0,0.2,0,0.6-0.2,1.4
			c0,0.6-0.2,1.6-0.3,2.5c-0.2,0.9-0.3,2.2-0.6,3.3c-0.3,1.3-0.6,2.5-1.1,3.8c-0.5,1.3-0.9,2.5-1.6,3.6c-0.6,1.1-1.3,2.2-2.2,3.2
			c-0.8,0.9-1.7,1.6-2.8,2.2s-2.2,0.8-3.6,0.8c-1.4,0-2.5-0.3-3.5-0.9c-0.9-0.6-1.9-1.4-2.5-2.5c-0.6-1.1-1.3-2.2-1.7-3.6
			s-0.8-2.8-1.1-4.4c-0.3-1.6-0.5-3.2-0.6-4.7C153.6,77.2,153.6,75.6,153.6,74.2z M163.4,56.7c-0.2,0-0.2,0.3-0.3,0.8
			c-0.2,0.5-0.2,1.3-0.3,2c-0.2,0.8-0.2,1.9-0.3,2.8s-0.2,2-0.3,3.2c0,1.1-0.2,2-0.2,2.8c0,0.8,0,1.6,0,2c0,3.6,0,6.5,0.2,8.5
			c0.2,2,0.3,3.8,0.5,4.7c0.2,0.9,0.5,1.7,0.6,2.2c0.3,0.3,0.5,0.5,0.8,0.5c0.8,0,1.4-0.3,2-1.1c0.5-0.8,0.9-1.7,1.1-2.8
			c0.3-1.1,0.5-2.4,0.5-3.8c0-1.4,0.2-2.7,0.2-3.9c0-0.8,0-1.9-0.2-3.2c-0.2-1.3-0.3-2.5-0.5-3.9s-0.5-2.7-0.8-4.1
			c-0.3-1.3-0.6-2.5-0.9-3.6c-0.3-1.1-0.6-1.9-0.9-2.5C163.9,57,163.6,56.7,163.4,56.7z M172.2,17c-1.4,3.5-2.5,6.6-3.3,9.3
			c-0.8,2.7-1.4,5-1.9,7.1c-0.5,2-0.6,3.9-0.9,5.5c-0.2,1.6-0.3,3-0.5,4.4c1.4-2.8,3-5.5,4.4-8.2c1.6-2.7,2.8-5.2,4.1-7.6
			c1.3-2.4,2.2-4.4,3-6.1s1.1-3.2,1.1-4.1c0-1.3-0.2-2.2-0.5-2.8c-0.3-0.6-0.8-0.9-1.4-0.9c-1.1,0-1.9,0.3-2.5,0.9
			C173.2,15.1,172.7,15.9,172.2,17z"/>
		<path d="M204.2,65c-0.9,0.8-1.9,1.7-3.3,2.5c-1.3,0.9-2.7,1.7-4.3,2.5c-1.6,0.8-3,1.4-4.6,1.9c-1.6,0.5-3,0.8-4.4,0.8
			c-1.3,0-2.4-0.2-3.2-0.5c-0.8-0.3-1.6-0.8-2-1.4s-0.9-1.4-1.1-2.4c-0.2-0.9-0.3-1.9-0.3-3c0-1.6,0.2-3.3,0.5-5.4
			c0.3-2,0.8-4.1,1.3-6.3c0.5-2.2,1.1-4.4,1.6-6.5c0.6-2.2,1.1-4.1,1.6-6c0.2-0.6,0.5-1.1,0.9-1.6c0.5-0.5,1.1-0.8,1.7-1.1
			c0.6-0.3,1.3-0.5,2-0.6c0.6-0.2,1.3-0.2,1.9-0.2c0.9,0,1.7,0.2,2,0.6c0.3,0.3,0.5,0.9,0.5,1.6c0,0.5-0.2,1.3-0.3,2.4
			c-0.3,0.9-0.5,2.2-0.9,3.5c-0.3,1.3-0.8,2.7-1.1,4.1c-0.5,1.4-0.8,3-1.1,4.4s-0.6,2.8-0.9,4.3s-0.3,2.7-0.3,3.8s0.2,1.9,0.3,2.5
			c0.3,0.6,0.8,0.9,1.4,0.9c0.9,0,1.9-0.3,2.8-0.9c1.1-0.6,2.2-1.4,3.3-2.2c1.1-0.8,2.2-1.7,3.2-2.7c1.1-0.9,1.9-1.7,2.8-2.4
			L204.2,65L204.2,65z M188,27.7c0-0.6,0.2-1.3,0.3-1.9c0.3-0.6,0.6-1.4,1.3-2c0.5-0.6,1.3-1.1,2.2-1.6c0.9-0.5,2-0.6,3.5-0.6
			c0.8,0,1.6,0.2,2.4,0.3c0.8,0.2,1.4,0.5,1.9,0.9c0.6,0.5,0.9,0.9,1.3,1.6c0.3,0.6,0.5,1.4,0.5,2.4c0,0.8-0.2,1.6-0.5,2.4
			c-0.3,0.8-0.6,1.4-1.3,2c-0.6,0.6-1.3,1.1-2.2,1.4c-0.9,0.3-1.9,0.6-3.2,0.6c-2.2,0-3.8-0.5-4.7-1.6C188.5,30.7,188,29.3,188,27.7
			z"/>
		<path d="M200.4,58.7c1.4-1.1,2.5-2.2,3.3-2.8c0.8-0.6,1.6-1.4,2.2-2.2c0.6-0.6,1.1-1.3,1.7-1.9c0.5-0.6,1.1-1.4,1.7-2.4
			c0.6-0.9,1.6-2,2.5-3.3c0.9-1.3,2.2-3,3.8-4.9c0.3-0.5,0.6-0.8,1.1-1.3c0.5-0.5,0.8-0.8,1.3-1.1s0.9-0.6,1.6-0.8
			c0.6-0.2,1.3-0.3,1.9-0.3c1.1,0,2,0.2,2.7,0.3c0.6,0.3,1.1,0.6,1.4,0.9s0.5,0.8,0.5,1.1s0,0.8,0,1.1c0,0.6-0.2,1.3-0.6,1.9
			c-0.5,0.6-0.9,1.4-1.6,2s-1.1,1.3-1.6,1.7c-0.5,0.5-0.8,0.9-0.8,1.3c0,0.8,0,1.4,0.2,2c0.2,0.6,0.3,1.3,0.5,1.9
			c0.2,0.6,0.3,1.3,0.6,1.9c0.3,0.6,0.3,1.4,0.6,2.4c0.2,0.9,0.3,1.9,0.5,3c0.2,1.1,0.2,2.5,0.2,4.1c0.9-0.6,1.7-1.1,2.8-1.6
			c0.9-0.5,2-0.9,3.2-1.4s2.2-1.1,3.3-1.7c1.1-0.6,2.4-1.4,3.5-2.2v8.2c-1.6,1.1-3.3,2.2-5.2,3.3c-2,0.9-4.1,1.9-6.1,2.7
			c-2.2,0.8-4.4,1.4-6.6,1.9s-4.3,0.6-6.3,0.6c-1.4,0-2.8-0.2-3.9-0.5c-1.1-0.3-2.4-0.6-3.3-1.3c-0.9-0.6-1.7-1.3-2.2-2.2
			c-0.5-0.9-0.9-2-1.1-3.3c-0.3,0-0.6,0.2-0.9,0.2c-0.3,0-0.6,0-0.9,0c-0.3,0-0.8,0-1.1,0s-0.6-0.2-0.9-0.3
			c-0.3-0.2-0.5-0.5-0.6-0.8c-0.2-0.3-0.2-0.8-0.2-1.6c0-0.6,0.2-1.1,0.5-1.6c0.3-0.5,0.6-0.9,0.9-1.3s0.8-0.8,1.1-0.9
			C200.1,59.5,200.3,59,200.4,58.7z M205.2,63.5c0.3,0,0.6,0.2,0.9,0.5c0.3,0.3,0.8,0.8,1.3,1.3s0.9,0.8,1.6,1.3
			c0.6,0.3,1.3,0.5,2,0.5c0.9,0,1.7-0.2,2.4-0.5c0.6-0.3,1.1-0.8,1.4-1.3s0.6-1.1,0.8-1.9c0.2-0.8,0.2-1.4,0.2-2.2
			c0-0.6,0-1.3-0.2-2s-0.2-1.3-0.3-1.9c-0.2-0.6-0.3-1.3-0.5-1.7c-0.2-0.5-0.3-0.9-0.5-1.4L205.2,63.5z"/>
		<path d="M245.7,50.2c0.9-1.3,2-2.7,3.3-4.3c1.3-1.6,2.5-2.8,3.8-4.3s2.7-2.4,3.9-3.3c1.3-0.8,2.5-1.3,3.8-1.3c0.3,0,0.6,0,0.9,0.2
			c0.3,0.2,0.8,0.3,1.1,0.6c0.3,0.3,0.6,0.6,0.8,1.3c0.2,0.5,0.3,1.3,0.3,2c0,1.6-0.2,3.3-0.6,4.9c-0.5,1.6-0.9,3.2-1.6,4.7
			c-0.5,1.6-1.1,3.2-1.4,4.7c-0.5,1.6-0.6,3.3-0.6,5c0,0.9,0.2,1.7,0.5,2.4c0.3,0.6,0.6,0.9,1.1,0.9c0.6,0,1.3-0.2,1.9-0.3
			c0.6-0.3,1.3-0.6,1.9-0.9c0.6-0.3,1.3-0.8,1.9-1.3c0.6-0.5,1.3-0.9,1.7-1.6c1.3-1.3,2.4-2,3.9-2.7c0.9,0.9-0.8-0.6,2,2.4
			c2.7,2.8-2.2,5.8-1.4,5.7c-0.5,0.3-0.9,0.8-1.6,1.3s-1.4,1.1-2.2,1.6c-0.8,0.6-1.7,1.1-2.7,1.7c-0.9,0.6-1.9,1.1-2.8,1.6
			c-0.9,0.5-1.9,0.8-2.8,1.1c-0.9,0.3-1.9,0.5-2.7,0.5c-1.3,0-2.5-0.3-3.5-1.1c-0.9-0.8-1.7-1.6-2.4-2.7c-0.6-1.1-1.1-2.4-1.4-3.6
			c-0.3-1.3-0.5-2.5-0.5-3.8c0-0.8,0.2-1.6,0.3-2.7c0.2-0.9,0.5-1.9,0.8-2.8s0.6-1.9,0.9-2.8c0.3-0.9,0.8-1.7,1.1-2.5
			s0.6-1.3,0.8-1.7s0.5-0.8,0.5-0.8l-0.8-0.2c-0.5,0.3-1.1,0.9-2,2c-0.9,1.1-2,2.5-3.3,4.1c-1.3,1.6-2.5,3.5-3.8,5.7
			c-1.3,2-2.5,4.3-3.6,6.5c-0.5,1.1-0.9,2-1.3,2.8c-0.3,0.8-0.6,1.4-0.9,2c-0.3,0.5-0.6,0.9-1.1,1.3c-0.3,0.3-0.9,0.5-1.4,0.5
			c-0.8,0-1.4-0.2-1.9-0.6c-0.5-0.5-0.8-1.1-1.1-1.9c-0.3-0.8-0.5-1.6-0.5-2.7c0-0.9-0.2-1.9-0.2-3c0-1.6,0-3.8,0-6.3
			c0-2.7,0.2-5.5,0.3-8.8c0.2-3.2,0.5-6.6,0.8-10.1s0.9-7.1,1.6-10.6c0.6-3.5,1.6-6.8,2.5-9.9s2.2-5.8,3.6-8.4
			c1.4-2.4,3.2-4.3,5-5.7c1.9-1.4,4.1-2.2,6.6-2.2c1.3,0,2.4,0.2,3.2,0.6c0.8,0.3,1.6,0.9,2,1.6c0.5,0.6,0.8,1.6,1.1,2.5
			c0.3,0.9,0.3,2,0.3,3.3c0,1.7-0.3,3.8-0.8,6c-0.5,2.2-1.3,4.4-2,6.8c-0.8,2.4-1.7,4.7-2.8,7.1c-1.1,2.4-2.2,4.7-3.3,7.1
			s-2.2,4.4-3.3,6.5c-1.1,2-2,3.8-2.8,5.4L245.7,50.2z M248.8,27.7c1.4-3.8,2.5-6.8,3.2-9.5c0.6-2.5,0.9-4.4,0.9-5.7
			c0-1.9-0.3-2.8-0.8-2.8c-0.6,0-1.6,1.1-2.8,3.2s-2.7,5-4.4,9c-0.5,1.3-0.8,2.7-1.1,4.1s-0.6,2.8-0.9,4.3c-0.3,1.4-0.5,2.8-0.8,4.3
			c-0.2,1.4-0.5,2.7-0.6,3.9c-0.5,2.8-0.8,5.7-0.9,8.5c0.6-1.6,1.4-3.2,2.2-5c0.8-1.7,1.6-3.6,2.4-5.4c0.8-1.7,1.4-3.5,2.2-5
			C247.9,30,248.5,28.8,248.8,27.7z"/>
	</g>
	<g>
		<path d="M280.7,50.2c0,0,0,0.2,0,0.3c0,0.2,0,0.5-0.2,0.6c0,0.3-0.2,0.5-0.3,0.8c-0.2,0.3-0.3,0.5-0.6,0.8
			c-0.3,0.2-0.6,0.5-0.9,0.6c-0.3,0.2-0.8,0.2-1.4,0.2c-0.5,0-0.8,0-1.1-0.2c-0.3-0.2-0.6-0.3-0.9-0.5s-0.5-0.5-0.6-0.9
			c-0.2-0.3-0.2-0.8-0.2-1.3c0-0.5,0-0.8,0.2-1.3c0.2-0.5,0.3-0.8,0.6-1.1c0.3-0.3,0.6-0.6,0.9-0.8c0.5-0.2,0.9-0.3,1.4-0.3
			c0.9,0,1.7,0.3,2.2,0.8C280.5,48.6,280.7,49.3,280.7,50.2z"/>
	</g>
</g>
<g>
	<path d="M8.4,116.9l1.7-9c0-0.2,0.1-0.3,0.2-0.3c0.1-0.1,0.2-0.1,0.3-0.1h0.7c0.1,0,0.2,0,0.3,0.1c0.1,0.1,0.1,0.2,0.1,0.3l0,0.1
		l-2,10.1c-0.1,0.3-0.2,0.5-0.3,0.6s-0.3,0.2-0.5,0.2H8.1c-0.2,0-0.4-0.1-0.5-0.2c-0.1-0.1-0.2-0.4-0.3-0.6l-1.5-5.5L4.3,118
		c-0.1,0.3-0.2,0.5-0.3,0.6c-0.1,0.1-0.3,0.2-0.5,0.2H2.8c-0.3,0-0.4-0.1-0.5-0.2c-0.1-0.1-0.2-0.4-0.3-0.6l-2-10.1l0-0.1
		c0-0.1,0-0.2,0.1-0.3c0.1-0.1,0.2-0.1,0.3-0.1H1c0.1,0,0.2,0,0.3,0.1c0.1,0.1,0.2,0.2,0.2,0.3l1.7,9l1.8-6.5c0-0.1,0.1-0.2,0.2-0.3
		c0.1-0.1,0.2-0.2,0.4-0.2h0.6c0.2,0,0.3,0.1,0.4,0.2c0.1,0.1,0.1,0.2,0.2,0.3L8.4,116.9z"/>
	<path d="M15.2,117.4h5.5c0.1,0,0.2,0,0.3,0.1c0.1,0.1,0.1,0.2,0.1,0.3v0.6c0,0.1,0,0.2-0.1,0.3c-0.1,0.1-0.2,0.1-0.3,0.1h-6.6
		c-0.1,0-0.2,0-0.3-0.1c-0.1-0.1-0.1-0.2-0.1-0.3v-10.5c0-0.1,0-0.2,0.1-0.3c0.1-0.1,0.2-0.1,0.3-0.1h6.5c0.1,0,0.2,0,0.3,0.1
		c0.1,0.1,0.1,0.2,0.1,0.3v0.6c0,0.1,0,0.2-0.1,0.3c-0.1,0.1-0.2,0.1-0.3,0.1h-5.4v3.4h5c0.1,0,0.2,0,0.3,0.1
		c0.1,0.1,0.1,0.2,0.1,0.3v0.6c0,0.1,0,0.2-0.1,0.3c-0.1,0.1-0.2,0.1-0.3,0.1h-5V117.4z"/>
	<path d="M23.3,107.9c0-0.1,0-0.2,0.1-0.3c0.1-0.1,0.2-0.1,0.3-0.1h4.4c0.9,0,1.6,0.2,2.1,0.5c0.5,0.3,0.9,0.7,1.1,1.2
		s0.3,0.9,0.3,1.4c0,0.6-0.1,1.1-0.4,1.5c-0.3,0.4-0.6,0.7-0.9,0.8c0.5,0.3,0.8,0.7,1.1,1.2c0.3,0.5,0.4,1,0.4,1.6
		c0,0.6-0.1,1.1-0.4,1.6c-0.3,0.5-0.7,0.9-1.2,1.2c-0.5,0.3-1.2,0.5-1.9,0.5h-4.6c-0.1,0-0.2,0-0.3-0.1c-0.1-0.1-0.1-0.2-0.1-0.3
		V107.9z M24.9,112.2H28c0.7,0,1.3-0.1,1.6-0.4c0.4-0.3,0.6-0.7,0.6-1.2s-0.2-0.9-0.6-1.2c-0.4-0.3-0.9-0.4-1.6-0.4h-3.1V112.2z
		 M24.9,117.4h3.3c0.7,0,1.2-0.2,1.6-0.5c0.4-0.4,0.6-0.8,0.6-1.3c0-0.5-0.2-1-0.6-1.3c-0.4-0.4-0.9-0.5-1.6-0.5h-3.3V117.4z"/>
	<path d="M46.5,116.8c-0.4,0.7-0.9,1.2-1.6,1.5c-0.7,0.4-1.5,0.5-2.4,0.5h-3.8c-0.1,0-0.2,0-0.3-0.1c-0.1-0.1-0.1-0.2-0.1-0.3v-10.5
		c0-0.1,0-0.2,0.1-0.3c0.1-0.1,0.2-0.1,0.3-0.1h3.7c0.9,0,1.7,0.2,2.4,0.5c0.7,0.4,1.3,0.9,1.7,1.5c0.4,0.7,0.6,1.5,0.6,2.4
		c0,0.3,0,0.8,0,1.3s0,1,0,1.3C47.1,115.3,46.9,116.1,46.5,116.8z M39.8,108.9v8.5h2.6c1.1,0,1.9-0.3,2.4-0.9
		c0.5-0.6,0.7-1.3,0.8-2.2c0-0.3,0-0.7,0-1.2c0-0.5,0-0.9,0-1.2c0-0.9-0.3-1.6-0.8-2.2c-0.5-0.6-1.3-0.9-2.4-0.9H39.8z"/>
	<path d="M51,117.4h5.5c0.1,0,0.2,0,0.3,0.1c0.1,0.1,0.1,0.2,0.1,0.3v0.6c0,0.1,0,0.2-0.1,0.3c-0.1,0.1-0.2,0.1-0.3,0.1h-6.6
		c-0.1,0-0.2,0-0.3-0.1c-0.1-0.1-0.1-0.2-0.1-0.3v-10.5c0-0.1,0-0.2,0.1-0.3c0.1-0.1,0.2-0.1,0.3-0.1h6.5c0.1,0,0.2,0,0.3,0.1
		c0.1,0.1,0.1,0.2,0.1,0.3v0.6c0,0.1,0,0.2-0.1,0.3c-0.1,0.1-0.2,0.1-0.3,0.1H51v3.4h5c0.1,0,0.2,0,0.3,0.1c0.1,0.1,0.1,0.2,0.1,0.3
		v0.6c0,0.1,0,0.2-0.1,0.3c-0.1,0.1-0.2,0.1-0.3,0.1h-5V117.4z"/>
	<path d="M66.6,110.5c-0.1,0.1-0.2,0.1-0.3,0.1h-0.7c-0.1,0-0.2,0-0.3-0.1c-0.1,0-0.1-0.1-0.2-0.3c-0.2-0.3-0.5-0.7-0.9-1
		c-0.4-0.3-1-0.5-1.7-0.5c-0.7,0-1.2,0.1-1.7,0.4c-0.5,0.3-0.7,0.7-0.7,1.3c0,0.4,0.1,0.7,0.3,0.9c0.2,0.2,0.6,0.4,1,0.6
		c0.5,0.2,1.1,0.4,2,0.6c1.2,0.3,2.1,0.7,2.6,1.2c0.5,0.5,0.8,1.1,0.8,1.9c0,0.7-0.2,1.2-0.5,1.7c-0.4,0.5-0.9,0.9-1.5,1.2
		c-0.7,0.3-1.4,0.4-2.3,0.4c-0.8,0-1.5-0.2-2.2-0.5c-0.7-0.3-1.2-0.7-1.6-1.2c-0.4-0.5-0.6-0.9-0.6-1.4c0-0.1,0-0.2,0.1-0.3
		c0.1-0.1,0.2-0.1,0.3-0.1h0.7c0.1,0,0.2,0,0.3,0.1c0.1,0,0.1,0.1,0.2,0.3c0.2,0.4,0.5,0.8,1,1.1c0.5,0.3,1.1,0.5,1.9,0.5
		c0.8,0,1.5-0.2,2-0.5c0.5-0.3,0.8-0.8,0.8-1.3c0-0.4-0.1-0.7-0.4-0.9c-0.3-0.2-0.7-0.5-1.2-0.6c-0.5-0.2-1.2-0.4-2.2-0.6
		c-1.1-0.3-1.8-0.7-2.3-1.2c-0.5-0.5-0.7-1.2-0.7-1.9c0-0.6,0.1-1.1,0.4-1.6c0.3-0.5,0.7-0.9,1.3-1.2c0.6-0.3,1.3-0.4,2.1-0.4
		s1.6,0.2,2.2,0.5c0.6,0.3,1.1,0.7,1.4,1.2c0.3,0.5,0.5,0.9,0.5,1.3C66.8,110.3,66.7,110.4,66.6,110.5z"/>
	<path d="M69.3,118.7c-0.1-0.1-0.1-0.2-0.1-0.3v-10.5c0-0.1,0-0.2,0.1-0.3c0.1-0.1,0.2-0.1,0.3-0.1h0.7c0.1,0,0.2,0,0.3,0.1
		c0.1,0.1,0.1,0.2,0.1,0.3v10.5c0,0.1,0,0.2-0.1,0.3c-0.1,0.1-0.2,0.1-0.3,0.1h-0.7C69.5,118.8,69.4,118.8,69.3,118.7z"/>
	<path d="M80.2,107.8c0.7,0.3,1.2,0.8,1.5,1.3c0.4,0.5,0.5,1,0.6,1.4c0,0.1,0,0.2-0.1,0.3c-0.1,0.1-0.2,0.1-0.3,0.1h-0.7
		c-0.3,0-0.4-0.1-0.5-0.2c-0.3-0.6-0.7-1.1-1.1-1.4c-0.4-0.3-1.1-0.5-1.9-0.5c-0.9,0-1.7,0.3-2.2,0.8c-0.6,0.5-0.9,1.3-0.9,2.2
		c0,0.3,0,0.8,0,1.4c0,0.6,0,1,0,1.4c0,1,0.3,1.8,0.9,2.3c0.6,0.5,1.3,0.8,2.2,0.8c0.9,0,1.7-0.2,2.3-0.7c0.6-0.5,0.8-1.3,0.8-2.3
		V114h-2.3c-0.1,0-0.2,0-0.3-0.1c-0.1-0.1-0.1-0.2-0.1-0.3V113c0-0.1,0-0.2,0.1-0.3c0.1-0.1,0.2-0.1,0.3-0.1H82c0.1,0,0.2,0,0.3,0.1
		c0.1,0.1,0.1,0.2,0.1,0.3v1.5c0,0.9-0.2,1.6-0.6,2.3c-0.4,0.7-0.9,1.2-1.6,1.6c-0.7,0.4-1.5,0.6-2.5,0.6c-1.5,0-2.6-0.4-3.4-1.2
		c-0.8-0.8-1.2-1.9-1.2-3.2c0-0.3,0-0.8,0-1.4s0-1.1,0-1.4c0-0.8,0.2-1.6,0.6-2.2c0.3-0.7,0.9-1.2,1.6-1.6c0.7-0.4,1.5-0.6,2.6-0.6
		C78.7,107.2,79.5,107.4,80.2,107.8z"/>
	<path d="M91.8,118.7c-0.1-0.1-0.2-0.2-0.3-0.4l-5.3-8v8c0,0.1,0,0.2-0.1,0.3c-0.1,0.1-0.2,0.1-0.3,0.1h-0.7c-0.1,0-0.2,0-0.3-0.1
		c-0.1-0.1-0.1-0.2-0.1-0.3v-10.5c0-0.1,0-0.2,0.1-0.3c0.1-0.1,0.2-0.1,0.3-0.1h0.6c0.1,0,0.3,0,0.4,0.1c0.1,0.1,0.2,0.2,0.3,0.4
		l5.3,8v-8c0-0.1,0-0.2,0.1-0.3c0.1-0.1,0.2-0.1,0.3-0.1h0.7c0.1,0,0.2,0,0.3,0.1c0.1,0.1,0.1,0.2,0.1,0.3v10.5c0,0.1,0,0.2-0.1,0.3
		c-0.1,0.1-0.2,0.1-0.3,0.1h-0.6C92.1,118.8,91.9,118.8,91.8,118.7z"/>
	<path d="M101.1,122.1c-0.1,0.1-0.2,0.1-0.3,0.1h-0.6c-0.1,0-0.2,0-0.3-0.1s-0.1-0.2-0.1-0.3v-17.1c0-0.1,0-0.2,0.1-0.3
		c0.1-0.1,0.2-0.1,0.3-0.1h0.6c0.1,0,0.2,0,0.3,0.1c0.1,0.1,0.1,0.2,0.1,0.3v17.1C101.3,121.9,101.2,122,101.1,122.1z"/>
	<path d="M116.1,116.8c-0.4,0.7-0.9,1.2-1.6,1.5c-0.7,0.4-1.5,0.5-2.4,0.5h-3.8c-0.1,0-0.2,0-0.3-0.1c-0.1-0.1-0.1-0.2-0.1-0.3
		v-10.5c0-0.1,0-0.2,0.1-0.3c0.1-0.1,0.2-0.1,0.3-0.1h3.7c0.9,0,1.7,0.2,2.4,0.5c0.7,0.4,1.3,0.9,1.7,1.5c0.4,0.7,0.6,1.5,0.6,2.4
		c0,0.3,0,0.8,0,1.3s0,1,0,1.3C116.7,115.3,116.5,116.1,116.1,116.8z M109.4,108.9v8.5h2.6c1.1,0,1.9-0.3,2.4-0.9
		c0.5-0.6,0.7-1.3,0.8-2.2c0-0.3,0-0.7,0-1.2c0-0.5,0-0.9,0-1.2c0-0.9-0.3-1.6-0.8-2.2c-0.5-0.6-1.3-0.9-2.4-0.9H109.4z"/>
	<path d="M120.6,117.4h5.5c0.1,0,0.2,0,0.3,0.1c0.1,0.1,0.1,0.2,0.1,0.3v0.6c0,0.1,0,0.2-0.1,0.3c-0.1,0.1-0.2,0.1-0.3,0.1h-6.6
		c-0.1,0-0.2,0-0.3-0.1c-0.1-0.1-0.1-0.2-0.1-0.3v-10.5c0-0.1,0-0.2,0.1-0.3c0.1-0.1,0.2-0.1,0.3-0.1h6.5c0.1,0,0.2,0,0.3,0.1
		c0.1,0.1,0.1,0.2,0.1,0.3v0.6c0,0.1,0,0.2-0.1,0.3c-0.1,0.1-0.2,0.1-0.3,0.1h-5.4v3.4h5c0.1,0,0.2,0,0.3,0.1
		c0.1,0.1,0.1,0.2,0.1,0.3v0.6c0,0.1,0,0.2-0.1,0.3c-0.1,0.1-0.2,0.1-0.3,0.1h-5V117.4z"/>
	<path d="M136.3,107.4h0.6c0.1,0,0.2,0,0.3,0.1c0.1,0.1,0.1,0.2,0.1,0.3c0,0.1,0,0.1,0,0.2l-3.5,10.2c-0.1,0.2-0.2,0.4-0.3,0.5
		c-0.1,0.1-0.3,0.2-0.5,0.2h-0.7c-0.4,0-0.7-0.2-0.8-0.7l-3.5-10.2c0-0.1,0-0.1,0-0.2c0-0.1,0-0.2,0.1-0.3c0.1-0.1,0.2-0.1,0.3-0.1
		h0.6c0.3,0,0.5,0.1,0.6,0.4l3.1,9.4l3.2-9.4C135.8,107.5,136,107.4,136.3,107.4z"/>
	<path d="M140.8,117.4h5.5c0.1,0,0.2,0,0.3,0.1c0.1,0.1,0.1,0.2,0.1,0.3v0.6c0,0.1,0,0.2-0.1,0.3c-0.1,0.1-0.2,0.1-0.3,0.1h-6.6
		c-0.1,0-0.2,0-0.3-0.1c-0.1-0.1-0.1-0.2-0.1-0.3v-10.5c0-0.1,0-0.2,0.1-0.3c0.1-0.1,0.2-0.1,0.3-0.1h6.5c0.1,0,0.2,0,0.3,0.1
		c0.1,0.1,0.1,0.2,0.1,0.3v0.6c0,0.1,0,0.2-0.1,0.3c-0.1,0.1-0.2,0.1-0.3,0.1h-5.4v3.4h5c0.1,0,0.2,0,0.3,0.1
		c0.1,0.1,0.1,0.2,0.1,0.3v0.6c0,0.1,0,0.2-0.1,0.3c-0.1,0.1-0.2,0.1-0.3,0.1h-5V117.4z"/>
	<path d="M156.3,117.5c0.1,0.1,0.1,0.2,0.1,0.3v0.6c0,0.1,0,0.2-0.1,0.3c-0.1,0.1-0.2,0.1-0.3,0.1h-6.6c-0.1,0-0.2,0-0.3-0.1
		c-0.1-0.1-0.1-0.2-0.1-0.3v-10.5c0-0.1,0-0.2,0.1-0.3c0.1-0.1,0.2-0.1,0.3-0.1h0.7c0.1,0,0.2,0,0.3,0.1c0.1,0.1,0.1,0.2,0.1,0.3
		v9.5h5.5C156.1,117.4,156.2,117.4,156.3,117.5z"/>
	<path d="M164.4,107.8c0.7,0.4,1.2,0.9,1.5,1.6c0.4,0.7,0.5,1.4,0.6,2.2c0,0.7,0,1.1,0,1.5s0,0.8,0,1.5c0,0.8-0.2,1.6-0.6,2.2
		c-0.4,0.7-0.9,1.2-1.5,1.6c-0.7,0.4-1.5,0.6-2.4,0.6c-0.9,0-1.7-0.2-2.4-0.6c-0.7-0.4-1.2-0.9-1.5-1.6c-0.4-0.7-0.5-1.4-0.6-2.2
		c0-0.3,0-0.8,0-1.5c0-0.6,0-1.1,0-1.5c0-0.8,0.2-1.6,0.6-2.2c0.4-0.7,0.9-1.2,1.5-1.6c0.7-0.4,1.5-0.6,2.4-0.6
		C162.9,107.2,163.7,107.4,164.4,107.8z M159.8,109.5c-0.5,0.5-0.8,1.3-0.8,2.3c0,0.3,0,0.8,0,1.4s0,1,0,1.4c0,1,0.3,1.8,0.8,2.3
		c0.5,0.5,1.2,0.8,2.1,0.8s1.6-0.3,2.1-0.8c0.5-0.5,0.8-1.3,0.8-2.3c0-0.7,0-1.1,0-1.4c0-0.3,0-0.7,0-1.4c0-1-0.3-1.8-0.8-2.3
		c-0.5-0.5-1.2-0.8-2.1-0.8S160.4,109,159.8,109.5z"/>
	<path d="M176.2,108.3c0.7,0.6,1.1,1.4,1.1,2.6c0,0.8-0.2,1.4-0.5,1.9c-0.4,0.5-0.8,0.9-1.4,1.2c-0.6,0.3-1.3,0.4-2,0.4h-3v4
		c0,0.1,0,0.2-0.1,0.3c-0.1,0.1-0.2,0.1-0.3,0.1h-0.7c-0.1,0-0.2,0-0.3-0.1c-0.1-0.1-0.1-0.2-0.1-0.3v-10.5c0-0.1,0-0.2,0.1-0.3
		c0.1-0.1,0.2-0.1,0.3-0.1h4.1C174.5,107.4,175.5,107.7,176.2,108.3z M173.3,112.9c0.8,0,1.4-0.2,1.8-0.5c0.4-0.3,0.6-0.9,0.6-1.5
		c0-1.3-0.8-2-2.5-2h-2.9v4H173.3z"/>
	<path d="M187.7,107.9c0.2-0.3,0.4-0.5,0.7-0.5h0.6c0.1,0,0.2,0,0.3,0.1c0.1,0.1,0.1,0.2,0.1,0.3v10.5c0,0.1,0,0.2-0.1,0.3
		c-0.1,0.1-0.2,0.1-0.3,0.1h-0.7c-0.1,0-0.2,0-0.3-0.1c-0.1-0.1-0.1-0.2-0.1-0.3v-7.7l-2.5,4.9c-0.1,0.2-0.2,0.3-0.3,0.4
		c-0.1,0.1-0.2,0.1-0.4,0.1h-0.6c-0.2,0-0.3,0-0.4-0.1c-0.1-0.1-0.2-0.2-0.3-0.4l-2.5-4.9v7.7c0,0.1,0,0.2-0.1,0.3
		c-0.1,0.1-0.2,0.1-0.3,0.1h-0.7c-0.1,0-0.2,0-0.3-0.1c-0.1-0.1-0.1-0.2-0.1-0.3v-10.5c0-0.1,0-0.2,0.1-0.3c0.1-0.1,0.2-0.1,0.3-0.1
		h0.6c0.3,0,0.5,0.2,0.7,0.5l3.3,6.4L187.7,107.9z"/>
	<path d="M193.8,117.4h5.5c0.1,0,0.2,0,0.3,0.1c0.1,0.1,0.1,0.2,0.1,0.3v0.6c0,0.1,0,0.2-0.1,0.3c-0.1,0.1-0.2,0.1-0.3,0.1h-6.6
		c-0.1,0-0.2,0-0.3-0.1c-0.1-0.1-0.1-0.2-0.1-0.3v-10.5c0-0.1,0-0.2,0.1-0.3c0.1-0.1,0.2-0.1,0.3-0.1h6.5c0.1,0,0.2,0,0.3,0.1
		c0.1,0.1,0.1,0.2,0.1,0.3v0.6c0,0.1,0,0.2-0.1,0.3c-0.1,0.1-0.2,0.1-0.3,0.1h-5.4v3.4h5c0.1,0,0.2,0,0.3,0.1
		c0.1,0.1,0.1,0.2,0.1,0.3v0.6c0,0.1,0,0.2-0.1,0.3c-0.1,0.1-0.2,0.1-0.3,0.1h-5V117.4z"/>
	<path d="M209.1,118.7c-0.1-0.1-0.2-0.2-0.3-0.4l-5.3-8v8c0,0.1,0,0.2-0.1,0.3c-0.1,0.1-0.2,0.1-0.3,0.1h-0.7c-0.1,0-0.2,0-0.3-0.1
		c-0.1-0.1-0.1-0.2-0.1-0.3v-10.5c0-0.1,0-0.2,0.1-0.3c0.1-0.1,0.2-0.1,0.3-0.1h0.6c0.1,0,0.3,0,0.4,0.1c0.1,0.1,0.2,0.2,0.3,0.4
		l5.3,8v-8c0-0.1,0-0.2,0.1-0.3c0.1-0.1,0.2-0.1,0.3-0.1h0.7c0.1,0,0.2,0,0.3,0.1c0.1,0.1,0.1,0.2,0.1,0.3v10.5c0,0.1,0,0.2-0.1,0.3
		c-0.1,0.1-0.2,0.1-0.3,0.1h-0.6C209.3,118.8,209.2,118.8,209.1,118.7z"/>
	<path d="M220.6,107.5c0.1,0.1,0.1,0.2,0.1,0.3v0.6c0,0.1,0,0.2-0.1,0.3c-0.1,0.1-0.2,0.1-0.3,0.1h-3.1v9.5c0,0.1,0,0.2-0.1,0.3
		c-0.1,0.1-0.2,0.1-0.3,0.1h-0.7c-0.1,0-0.2,0-0.3-0.1c-0.1-0.1-0.1-0.2-0.1-0.3v-9.5h-3.1c-0.1,0-0.2,0-0.3-0.1
		c-0.1-0.1-0.1-0.2-0.1-0.3v-0.6c0-0.1,0-0.2,0.1-0.3c0.1-0.1,0.2-0.1,0.3-0.1h7.7C220.4,107.4,220.5,107.5,220.6,107.5z"/>
	<path d="M233.6,110.5c-0.1,0.1-0.2,0.1-0.3,0.1h-0.7c-0.1,0-0.2,0-0.3-0.1c-0.1,0-0.1-0.1-0.2-0.3c-0.2-0.3-0.5-0.7-0.9-1
		c-0.4-0.3-1-0.5-1.7-0.5c-0.7,0-1.2,0.1-1.7,0.4c-0.5,0.3-0.7,0.7-0.7,1.3c0,0.4,0.1,0.7,0.3,0.9c0.2,0.2,0.6,0.4,1,0.6
		s1.1,0.4,2,0.6c1.2,0.3,2.1,0.7,2.6,1.2s0.8,1.1,0.8,1.9c0,0.7-0.2,1.2-0.5,1.7c-0.4,0.5-0.9,0.9-1.5,1.2c-0.7,0.3-1.4,0.4-2.3,0.4
		c-0.8,0-1.5-0.2-2.2-0.5c-0.7-0.3-1.2-0.7-1.6-1.2c-0.4-0.5-0.6-0.9-0.6-1.4c0-0.1,0-0.2,0.1-0.3c0.1-0.1,0.2-0.1,0.3-0.1h0.7
		c0.1,0,0.2,0,0.3,0.1s0.1,0.1,0.2,0.3c0.2,0.4,0.5,0.8,1,1.1c0.5,0.3,1.1,0.5,1.9,0.5c0.8,0,1.5-0.2,2-0.5c0.5-0.3,0.8-0.8,0.8-1.3
		c0-0.4-0.1-0.7-0.4-0.9c-0.3-0.2-0.7-0.5-1.2-0.6c-0.5-0.2-1.2-0.4-2.2-0.6c-1.1-0.3-1.8-0.7-2.3-1.2c-0.5-0.5-0.7-1.2-0.7-1.9
		c0-0.6,0.1-1.1,0.4-1.6c0.3-0.5,0.7-0.9,1.3-1.2c0.6-0.3,1.3-0.4,2.1-0.4c0.8,0,1.5,0.2,2.2,0.5c0.6,0.3,1.1,0.7,1.4,1.2
		s0.5,0.9,0.5,1.3C233.7,110.3,233.7,110.4,233.6,110.5z"/>
	<path d="M243.4,107.5c0.1,0.1,0.1,0.2,0.1,0.3v0.6c0,0.1,0,0.2-0.1,0.3c-0.1,0.1-0.2,0.1-0.3,0.1H240v9.5c0,0.1,0,0.2-0.1,0.3
		c-0.1,0.1-0.2,0.1-0.3,0.1h-0.7c-0.1,0-0.2,0-0.3-0.1c-0.1-0.1-0.1-0.2-0.1-0.3v-9.5h-3.1c-0.1,0-0.2,0-0.3-0.1
		c-0.1-0.1-0.1-0.2-0.1-0.3v-0.6c0-0.1,0-0.2,0.1-0.3c0.1-0.1,0.2-0.1,0.3-0.1h7.7C243.2,107.4,243.3,107.5,243.4,107.5z"/>
	<path d="M253.8,107.5c0.1,0.1,0.1,0.2,0.1,0.3v6.5c0,1.4-0.4,2.5-1.1,3.4c-0.7,0.8-1.8,1.2-3.3,1.2c-1.5,0-2.6-0.4-3.3-1.2
		c-0.7-0.8-1.1-2-1.1-3.4v-6.5c0-0.1,0-0.2,0.1-0.3c0.1-0.1,0.2-0.1,0.3-0.1h0.7c0.1,0,0.2,0,0.3,0.1c0.1,0.1,0.1,0.2,0.1,0.3v6.6
		c0,1,0.2,1.8,0.7,2.4c0.5,0.5,1.2,0.8,2.1,0.8c0.9,0,1.6-0.3,2.1-0.8c0.5-0.5,0.8-1.3,0.8-2.4v-6.6c0-0.1,0-0.2,0.1-0.3
		c0.1-0.1,0.2-0.1,0.3-0.1h0.7C253.7,107.4,253.8,107.5,253.8,107.5z"/>
	<path d="M264.9,116.8c-0.4,0.7-0.9,1.2-1.6,1.5c-0.7,0.4-1.5,0.5-2.4,0.5h-3.8c-0.1,0-0.2,0-0.3-0.1c-0.1-0.1-0.1-0.2-0.1-0.3
		v-10.5c0-0.1,0-0.2,0.1-0.3c0.1-0.1,0.2-0.1,0.3-0.1h3.7c0.9,0,1.7,0.2,2.4,0.5c0.7,0.4,1.3,0.9,1.7,1.5c0.4,0.7,0.6,1.5,0.6,2.4
		c0,0.3,0,0.8,0,1.3s0,1,0,1.3C265.5,115.3,265.3,116.1,264.9,116.8z M258.2,108.9v8.5h2.6c1.1,0,1.9-0.3,2.4-0.9
		c0.5-0.6,0.7-1.3,0.8-2.2c0-0.3,0-0.7,0-1.2c0-0.5,0-0.9,0-1.2c0-0.9-0.3-1.6-0.8-2.2c-0.5-0.6-1.3-0.9-2.4-0.9H258.2z"/>
	<path d="M268,118.7c-0.1-0.1-0.1-0.2-0.1-0.3v-10.5c0-0.1,0-0.2,0.1-0.3c0.1-0.1,0.2-0.1,0.3-0.1h0.7c0.1,0,0.2,0,0.3,0.1
		c0.1,0.1,0.1,0.2,0.1,0.3v10.5c0,0.1,0,0.2-0.1,0.3c-0.1,0.1-0.2,0.1-0.3,0.1h-0.7C268.2,118.8,268.1,118.8,268,118.7z"/>
	<path d="M278.8,107.8c0.7,0.4,1.2,0.9,1.5,1.6c0.4,0.7,0.5,1.4,0.6,2.2c0,0.7,0,1.1,0,1.5s0,0.8,0,1.5c0,0.8-0.2,1.6-0.6,2.2
		c-0.4,0.7-0.9,1.2-1.5,1.6c-0.7,0.4-1.5,0.6-2.4,0.6c-0.9,0-1.7-0.2-2.4-0.6c-0.7-0.4-1.2-0.9-1.5-1.6c-0.4-0.7-0.5-1.4-0.6-2.2
		c0-0.3,0-0.8,0-1.5c0-0.6,0-1.1,0-1.5c0-0.8,0.2-1.6,0.6-2.2c0.4-0.7,0.9-1.2,1.5-1.6c0.7-0.4,1.5-0.6,2.4-0.6
		C277.3,107.2,278.1,107.4,278.8,107.8z M274.2,109.5c-0.5,0.5-0.8,1.3-0.8,2.3c0,0.3,0,0.8,0,1.4s0,1,0,1.4c0,1,0.3,1.8,0.8,2.3
		c0.5,0.5,1.2,0.8,2.1,0.8s1.6-0.3,2.1-0.8c0.5-0.5,0.8-1.3,0.8-2.3c0-0.7,0-1.1,0-1.4c0-0.3,0-0.7,0-1.4c0-1-0.3-1.8-0.8-2.3
		c-0.5-0.5-1.2-0.8-2.1-0.8S274.8,109,274.2,109.5z"/>
</g>
</svg>
