<?xml version="1.0" encoding="utf-8"?>
<!-- Generator: Adobe Illustrator 19.2.1, SVG Export Plug-In . SVG Version: 6.00 Build 0)  -->
<svg id="footerLogo" version="1.1" xmlns="http://www.w3.org/2000/svg" xmlns:xlink="http://www.w3.org/1999/xlink" x="0px" y="0px"
	 width="194.7px" height="101.1px" viewBox="0 0 194.7 101.1" style="enable-background:new 0 0 194.7 101.1;" xml:space="preserve"
	>
<circle id="airBalloon" cx="100" cy="95" r="5" fill="none" strokeWidth="5px" stroke="#000" transform="translateX(-90, 95, 95)">
</circle>
<path id="fish" class="st0" d="M193,2c-0.1-0.7-0.8-1.1-1.5-1s-1.2,0.7-1.2,1.3c0,5.1-2.2,5.1-3,5.1c-0.6,0-1.2-0.1-1.9-0.4
	c-0.7-0.2-2.4-0.8-4.3-0.8c-2.3,0-5.2,0.8-7.3,3.9c-1.4-3.8-4.1-4.7-6.3-4.7c-1.4,0-2.9,0.3-4.7,1.1c-0.6,0.2-1.3,0.4-2,0.4
	c-1.2,0-2.2-0.3-2.9-1c-0.9-0.8-1.3-2-1.3-3.6c0-0.7-0.5-1.3-1.2-1.3c-0.7-0.1-1.3,0.4-1.5,1c-3,13.8,4.7,21.8,12.7,24.6
	c-0.5,6.2-5.4,6.7-11.7,6.7H2.7c-0.2,0-0.3,0-0.5,0.1c-0.1,0-0.1,0-0.2,0c-0.7,0.2-1.2,0.9-1,1.6c3.9,18.2,14,34.7,28.5,46.5
	c14.7,12,33.2,18.6,52.2,18.6c39.7,0,69.9-34.9,91.7-65.3c2.6-2.9,3.5-5.7,3.9-7.4c5.3-1.1,10.1-4.3,13-8.6
	C193.5,14.1,194.4,8.3,193,2z M81.8,97.4c-18.4,0-36.3-6.4-50.5-18C18.1,68.6,8.6,53.8,4.5,37.4c20.6,13.1,44.2,20.8,68.6,22.3
	c1,7.6,6.7,20.2,22.3,20.2c0.5,0,1-0.3,1.2-0.8s0.1-1.1-0.3-1.5c-4.6-4.6-7.9-12.3-5.9-17.5c25.1-0.2,58.9-8.8,74.7-18.4
	C144.2,69.1,116.7,97.4,81.8,97.4z"/>
</svg>