<?xml version="1.0" encoding="utf-8"?>
<!-- Generator: Adobe Illustrator 19.2.1, SVG Export Plug-In . SVG Version: 6.00 Build 0)  -->
<svg version="1.1" id="Layer_3" xmlns="http://www.w3.org/2000/svg" xmlns:xlink="http://www.w3.org/1999/xlink" x="0px" y="0px"
	 width="103.9px" height="105px" viewBox="0 0 103.9 105" style="enable-background:new 0 0 103.9 105;" xml:space="preserve">
<style type="text/css">
	.st0{fill:#E6EAEE;}
	.st1{fill:#4BD6C0;}
	.st2{fill:#34495E;}
	.st3{fill:#F6F8FB;}
	.st4{fill:#39C4AD;}
	.st5{fill:#CDD3DA;}
	.st6{fill:#2FB49E;}
</style>
<g>
	<g>
		<rect x="11.4" y="0" class="st0" width="65.5" height="92.6"/>
		<g>
			<rect x="22.9" y="28.3" class="st1" width="42.5" height="2.7"/>
			<g>
				<g>
					<rect x="22.9" y="41" class="st2" width="42.5" height="1"/>
					<rect x="22.9" y="43.9" class="st2" width="42.5" height="1"/>
					<rect x="22.9" y="46.8" class="st2" width="42.5" height="1"/>
					<rect x="22.9" y="49.7" class="st2" width="42.5" height="1"/>
					<rect x="35.9" y="52.7" class="st2" width="16.5" height="1"/>
					<rect x="22.9" y="38.1" class="st2" width="42.5" height="1"/>
					<rect x="22.9" y="35.2" class="st2" width="42.5" height="1"/>
				</g>
			</g>
		</g>
		<g>
			<rect x="11.4" y="0" class="st1" width="65.5" height="20.6"/>
			<g>
				<rect x="36" y="3.4" class="st3" width="33.5" height="2.7"/>
				<g>
					<g>
						<rect x="36" y="16.1" class="st2" width="5.9" height="1"/>
						<rect x="36" y="13.2" class="st2" width="11.9" height="1"/>
						<rect x="36" y="10.3" class="st2" width="11.9" height="1"/>
					</g>
				</g>
			</g>
			<g>
				<circle class="st3" cx="21.7" cy="10.3" r="6.9"/>
				<g>
					<polygon class="st1" points="17.9,10.3 21.7,14.1 21.7,6.5 					"/>
					<polygon class="st2" points="25.5,10.3 21.7,14.1 21.7,6.5 					"/>
				</g>
			</g>
		</g>
	</g>
	<g>
		<rect x="49.9" y="72.6" class="st1" width="54" height="32.4"/>
		<polygon class="st4" points="49.9,105 76.9,85 103.9,105 		"/>
		<polygon class="st5" points="49.9,72.6 76.9,96 103.9,72.6 		"/>
		<polygon class="st4" points="49.9,72.6 76.9,92.6 103.9,72.6 		"/>
	</g>
	<g>
		<polygon class="st0" points="6,39.4 4.2,35.7 1.8,35.7 0,39.4 		"/>
		<rect y="39.4" class="st6" width="6" height="65.6"/>
		<rect y="39.4" class="st1" width="3" height="65.6"/>
		<polygon class="st2" points="4.2,35.7 3,33.4 1.8,35.7 		"/>
		<rect y="97.8" class="st0" width="6" height="2.1"/>
	</g>
	<g>
		<rect x="71.8" y="43" class="st6" width="32.1" height="21.4"/>
		<g>
			<circle class="st3" cx="87.8" cy="53.2" r="6.9"/>
			<g>
				<polygon class="st1" points="84,53.2 87.8,57 87.8,49.4 				"/>
				<polygon class="st2" points="91.7,53.2 87.8,57 87.8,49.4 				"/>
			</g>
		</g>
		<g>
			<g>
				<rect x="95.8" y="62.6" class="st3" width="3.3" height="0.5"/>
				<rect x="95.8" y="61.1" class="st3" width="6.5" height="0.5"/>
				<rect x="95.8" y="59.6" class="st3" width="6.5" height="0.5"/>
			</g>
		</g>
	</g>
</g>
</svg>
