<?xml version="1.0" encoding="utf-8"?>
<!-- Generator: Adobe Illustrator 19.2.1, SVG Export Plug-In . SVG Version: 6.00 Build 0)  -->
<svg version="1.1" id="Layer_3" xmlns="http://www.w3.org/2000/svg" xmlns:xlink="http://www.w3.org/1999/xlink" x="0px" y="0px"
	 width="86.3px" height="120px" viewBox="0 0 86.3 120" style="enable-background:new 0 0 86.3 120;" xml:space="preserve">
<style type="text/css">
	.st0{fill:#CDD3DA;}
	.st1{fill:#283A4D;}
	.st2{fill:#34495E;}
	.st3{fill:#E6EAEE;}
	.st4{fill:#4BD6C0;}
	.st5{fill:#F6F8FB;}
</style>
<g>
	<g>
		<g>
			<rect x="42" class="st0" width="2.3" height="5.5"/>
			
				<rect x="35" y="0.6" transform="matrix(0.985 -0.1728 0.1728 0.985 -3.571167e-02 6.2954)" class="st0" width="2.3" height="5.5"/>
			
				<rect x="28.2" y="2.4" transform="matrix(0.9397 -0.3421 0.3421 0.9397 -9.367344e-04 10.3492)" class="st0" width="2.3" height="5.5"/>
			
				<rect x="21.8" y="5.4" transform="matrix(0.8665 -0.4992 0.4992 0.8665 -1.0055 12.5459)" class="st0" width="2.3" height="5.5"/>
			<rect x="16" y="9.5" transform="matrix(0.7657 -0.6432 0.6432 0.7657 -3.8179 13.906)" class="st0" width="2.3" height="5.5"/>
			<rect x="11" y="14.4" transform="matrix(0.6425 -0.7663 0.7663 0.6425 -8.8014 15.4833)" class="st0" width="2.3" height="5.5"/>
			<rect x="7" y="20.2" transform="matrix(0.4999 -0.8661 0.8661 0.4999 -15.7954 18.5392)" class="st0" width="2.3" height="5.5"/>
			<rect x="4" y="26.6" transform="matrix(0.342 -0.9397 0.9397 0.342 -24.1589 24.1663)" class="st0" width="2.3" height="5.5"/>
			
				<rect x="2.2" y="33.4" transform="matrix(0.1738 -0.9848 0.9848 0.1738 -32.8206 33.1586)" class="st0" width="2.3" height="5.5"/>
			<rect x="0.6" y="49" transform="matrix(0.9848 -0.1735 0.1735 0.9848 -8.6535 1.3419)" class="st0" width="5.5" height="2.3"/>
			<rect x="2.4" y="55.8" transform="matrix(0.9395 -0.3426 0.3426 0.9395 -19.2089 5.221)" class="st0" width="5.5" height="2.3"/>
			
				<rect x="5.4" y="62.2" transform="matrix(0.8658 -0.5004 0.5004 0.8658 -30.615 12.5841)" class="st0" width="5.5" height="2.3"/>
			<rect x="9.5" y="68" transform="matrix(0.7659 -0.643 0.643 0.7659 -41.6037 24.0261)" class="st0" width="5.5" height="2.3"/>
			
				<rect x="14.4" y="73" transform="matrix(0.6424 -0.7663 0.7663 0.6424 -50.6652 39.6691)" class="st0" width="5.5" height="2.3"/>
			<rect x="68" y="71.4" transform="matrix(0.7667 -0.642 0.642 0.7667 -31.4573 61.6846)" class="st0" width="2.3" height="5.5"/>
			
				<rect x="73" y="66.4" transform="matrix(0.6436 -0.7654 0.7654 0.6436 -26.5011 81.3824)" class="st0" width="2.3" height="5.5"/>
			<rect x="77" y="60.6" transform="matrix(0.501 -0.8654 0.8654 0.501 -15.8437 99.2686)" class="st0" width="2.3" height="5.5"/>
			
				<rect x="80" y="54.3" transform="matrix(0.3423 -0.9396 0.9396 0.3423 -0.1733 113.7305)" class="st0" width="2.3" height="5.5"/>
			
				<rect x="81.8" y="47.4" transform="matrix(0.1733 -0.9849 0.9849 0.1733 19.1692 123.2023)" class="st0" width="2.3" height="5.5"/>
			<rect x="80.2" y="35" transform="matrix(0.9849 -0.173 0.173 0.9849 -5.0019 14.899)" class="st0" width="5.5" height="2.3"/>
			
				<rect x="78.4" y="28.2" transform="matrix(0.9396 -0.3422 0.3422 0.9396 -5.1398 29.5396)" class="st0" width="5.5" height="2.3"/>
			
				<rect x="75.4" y="21.8" transform="matrix(0.8658 -0.5004 0.5004 0.8658 -0.9938 42.1919)" class="st0" width="5.5" height="2.3"/>
			<rect x="71.4" y="16" transform="matrix(0.7659 -0.6429 0.6429 0.7659 6.3084 51.6807)" class="st0" width="5.4" height="2.3"/>
			<rect x="66.4" y="11" transform="matrix(0.6424 -0.7663 0.7663 0.6424 15.3807 57.3544)" class="st0" width="5.5" height="2.3"/>
			<rect x="60.6" y="7" transform="matrix(0.499 -0.8666 0.8666 0.499 24.6838 59.0075)" class="st0" width="5.5" height="2.3"/>
			<rect x="54.3" y="4" transform="matrix(0.3423 -0.9396 0.9396 0.3423 32.6147 56.9511)" class="st0" width="5.5" height="2.3"/>
			
				<rect x="47.5" y="2.2" transform="matrix(0.1718 -0.9851 0.9851 0.1718 38.2581 52.2148)" class="st0" width="5.5" height="2.3"/>
			<rect x="80.8" y="42" class="st0" width="5.5" height="2.3"/>
			<rect y="42" class="st0" width="5.5" height="2.3"/>
		</g>
	</g>
	<g>
		<rect x="28.4" y="94.4" class="st1" width="29.6" height="20.1"/>
		<rect x="27" y="96.7" class="st2" width="32.2" height="2.2"/>
		<rect x="27" y="101.1" class="st2" width="32.2" height="2.2"/>
		<rect x="27" y="105.6" class="st2" width="32.2" height="2.2"/>
		<rect x="27" y="110.1" class="st2" width="32.2" height="2.2"/>
		<rect x="33.6" y="114.5" class="st0" width="19.2" height="5.5"/>
	</g>
	<path class="st3" d="M43.2,9.3C24.5,9.3,9.3,24.5,9.3,43.2c0,9.9,4.3,18.8,11,25c0.3,0.3,0.6,0.6,1,0.8c5.3,4.8,8.6,11.8,8.6,19.5
		v5.9h13.2h13.2v-5.9c0-7.7,3.3-14.7,8.6-19.5c0.3-0.3,0.6-0.6,1-0.8c6.8-6.2,11-15.1,11-25C77,24.5,61.9,9.3,43.2,9.3z"/>
	<g>
		<circle class="st4" cx="43.2" cy="43.2" r="20.7"/>
		<circle class="st1" cx="43.2" cy="43.2" r="9.6"/>
		<circle class="st5" cx="37.1" cy="37.1" r="5.6"/>
	</g>
</g>
</svg>
