<?xml version="1.0" encoding="utf-8"?>
<!-- Generator: Adobe Illustrator 19.2.1, SVG Export Plug-In . SVG Version: 6.00 Build 0)  -->
<svg version="1.1" xmlns="http://www.w3.org/2000/svg" xmlns:xlink="http://www.w3.org/1999/xlink" x="0px" y="0px" width="170.5px"
	 height="185.2px" viewBox="0 0 170.5 185.2" style="enable-background:new 0 0 170.5 185.2;" xml:space="preserve">
<style type="text/css">
	.st0{fill:#FFFFFF;}
	.st1{fill:#00A79D;}
</style>
<g id="Layer_2">
	<polygon class="st0" points="125.5,0.3 24,7.7 9,23.7 4,58.7 7,115.7 18,138.7 28.4,147.4 39,147.7 46,165.7 62,178.7 59,146.7 
		82.9,138.6 109,141.7 136,134.6 150,132.7 164,98.7 166,52.7 161,25.7 148,10.7 	"/>
</g>
<g id="_x31_">
	<path class="st1" d="M70.3,185.2l-8.3-2.1c-12.8-3.2-22.2-15.1-25.8-32.5c-0.3-1.5-0.5-2.2-7.8-3.2C-0.5,143.4,0,104,0.2,82.8
		c0-1.8,0-3.5,0-5c0-2.7,0-5.5-0.1-8.5c-0.3-18.1-0.6-38.7,9.3-54C17.6,2.5,31,0.7,44.3,0.7c2.9,0,5.9,0.1,8.8,0.2
		c3.3,0.1,6.8,0.2,10.1,0.2C69.9,1,76.9,0.8,84.3,0.6c9-0.3,18.4-0.6,27.4-0.6c5.1,0,9.6,0.1,13.8,0.3c19.7,0.8,38.3,5.7,41.1,35.5
		c0.3,3,0.7,6.4,1.1,10c3.7,33.2,10,88.8-30.1,97.2c-12.5,2.6-23.8,3-35.8,3.3c-5.9,0.2-12.1,0.4-18.4,0.8c-2.2,0.2-4.6,0.2-6.8,0.2
		c-8.4,0-14.1,0.4-15.8,4.7c-1.3,3.2,1.3,13.9,6.1,25.4L70.3,185.2z M44.3,9.2c-12.9,0-22.1,1.8-27.8,10.7
		C8.1,33.1,8.3,52.3,8.6,69.3c0,3,0.1,5.8,0.1,8.6c0,1.6,0,3.3,0,5.1c-0.3,25.7,1,53.4,20.8,56.1c6.3,0.9,13.3,1.8,15,9.9
		c1,4.9,3.8,14.8,10.6,21c-2.5-7.6-4.2-16.1-2.1-21.2c4-9.9,14.9-9.9,23.7-10c2.2,0,4.3,0,6.2-0.2c6.5-0.5,12.8-0.7,18.8-0.9
		c11.6-0.3,22.5-0.7,34.3-3.1c32.5-6.8,26.8-57.6,23.4-87.9c-0.4-3.6-0.8-7.1-1.1-10.1c-1.9-19.8-10.2-26.8-33-27.8
		c-4.1-0.2-8.5-0.3-13.5-0.3c-8.9,0-18.2,0.3-27.2,0.6c-7.5,0.2-14.5,0.4-21.3,0.5c-3.5,0-7-0.1-10.4-0.2
		C49.9,9.3,47.1,9.2,44.3,9.2z"/>
</g>
</svg>
