<?xml version="1.0" encoding="utf-8"?>
<!-- Generator: Adobe Illustrator 19.2.1, SVG Export Plug-In . SVG Version: 6.00 Build 0)  -->
<svg version="1.1" id="Layer_3" xmlns="http://www.w3.org/2000/svg" xmlns:xlink="http://www.w3.org/1999/xlink" x="0px" y="0px"
	 width="80.3px" height="110px" viewBox="0 0 80.3 110" style="enable-background:new 0 0 80.3 110;" xml:space="preserve">
<style type="text/css">
	.st0{fill:#CDD3DA;}
	.st1{fill:#FF7059;}
	.st2{fill:#F15540;}
	.st3{fill:#34495E;}
	.st4{fill:#283A4D;}
	.st5{fill:#4BD6C0;}
</style>
<g>
	<g>
		<polygon class="st0" points="0,95.3 0.4,110 12,100.8 		"/>
		
			<rect x="-24.2" y="44" transform="matrix(0.4223 -0.9065 0.9065 0.4223 -29.6061 54.7607)" class="st1" width="104.8" height="13.2"/>
		
			<rect x="-21.3" y="48.7" transform="matrix(0.422 -0.9066 0.9066 0.422 -29.1452 58.1936)" class="st2" width="104.8" height="6.6"/>
		<polygon class="st3" points="0.2,104.2 0.4,110 4.9,106.4 		"/>
	</g>
	<g>
		<polygon class="st3" points="77.4,90 65.4,95.6 28.3,15.9 40.2,10.4 		"/>
		<polygon class="st3" points="38.4,6.4 26.4,12 23.4,5.6 35.4,0 		"/>
		<polygon class="st4" points="79.3,105.8 76.2,107.2 65.4,95.6 77.4,90 		"/>
		<polygon class="st0" points="79.9,109.4 78.7,110 77.2,106.8 78.4,106.2 		"/>
		<rect x="28" y="9" transform="matrix(0.9064 -0.4225 0.4225 0.9064 -1.6007 15.1432)" class="st0" width="10.7" height="4.4"/>
		<path class="st4" d="M60.6,47.6l-14.9-32c-0.1-0.3-0.4-0.5-0.6-0.6c-0.3-0.1-0.6-0.1-0.9,0l-1.5,0.7l-1-2.1l1.5-0.7
			c0.8-0.4,1.7-0.4,2.6-0.1c0.8,0.3,1.5,0.9,1.9,1.8l14.9,32L60.6,47.6z"/>
	</g>
	<g>
		<path class="st5" d="M0.1,69.4h80.2V56.2H0.1V69.4z M6.7,62.8c0,0.9-0.7,1.7-1.7,1.7c-0.9,0-1.7-0.8-1.7-1.7s0.8-1.7,1.7-1.7
			S6.7,61.9,6.7,62.8z"/>
		<g>
			<g>
				<g>
					<g>
						<rect x="9.7" y="56.2" class="st3" width="0.4" height="3.4"/>
						<rect x="16.3" y="56.2" class="st3" width="0.4" height="3.4"/>
						<rect x="23" y="56.2" class="st3" width="0.4" height="3.4"/>
						<rect x="29.7" y="56.2" class="st3" width="0.4" height="3.4"/>
						<rect x="36.4" y="56.2" class="st3" width="0.4" height="3.4"/>
						<rect x="43.1" y="56.2" class="st3" width="0.4" height="3.4"/>
						<rect x="49.8" y="56.2" class="st3" width="0.4" height="3.4"/>
						<rect x="56.5" y="56.2" class="st3" width="0.4" height="3.4"/>
						<rect x="63.1" y="56.2" class="st3" width="0.4" height="3.4"/>
						<rect x="69.8" y="56.2" class="st3" width="0.4" height="3.4"/>
						<rect x="76.5" y="56.2" class="st3" width="0.4" height="3.4"/>
					</g>
				</g>
				<g>
					<g>
						<rect x="73.2" y="56.2" class="st3" width="0.3" height="1.7"/>
						<rect x="66.5" y="56.2" class="st3" width="0.3" height="1.7"/>
						<rect x="59.8" y="56.2" class="st3" width="0.3" height="1.7"/>
						<rect x="53.2" y="56.2" class="st3" width="0.3" height="1.7"/>
						<rect x="46.4" y="56.2" class="st3" width="0.3" height="1.7"/>
						<rect x="39.8" y="56.2" class="st3" width="0.3" height="1.7"/>
						<rect x="33.1" y="56.2" class="st3" width="0.3" height="1.7"/>
						<rect x="26.4" y="56.2" class="st3" width="0.3" height="1.7"/>
						<rect x="19.7" y="56.2" class="st3" width="0.3" height="1.7"/>
						<rect x="13" y="56.2" class="st3" width="0.3" height="1.7"/>
					</g>
				</g>
			</g>
		</g>
	</g>
</g>
</svg>
